<svg xmlns="http://www.w3.org/2000/svg" xmlns:svgjs="http://svgjs.com/svgjs" xmlns:xlink="http://www.w3.org/1999/xlink" width="288" height="288"><svg xmlns="http://www.w3.org/2000/svg" width="288" height="288" enable-background="new 0 0 50 50" viewBox="0 0 50 50"><path fill="#fff" d="M48.00049,9.21167L12.43066,9.19995c-0.00049,0-0.00049,0-0.00049,0
		c-0.17236,0-0.3418,0.04443-0.49219,0.12939L1.50781,15.2229c-0.30188,0.17011-0.48884,0.46825-0.50122,0.83789
		C1.00623,16.07226,1,16.08191,1,16.0935v23.70654c0,0.55225,0.44775,1,1,1h41.1333c0.00049,0,0.00098-0.00024,0.00146-0.00024
		c0.11902-0.00024,0.23492-0.02844,0.34631-0.07007c0.02222-0.0083,0.04413-0.01465,0.06555-0.02454
		c0.10028-0.04553,0.19299-0.10681,0.27496-0.18542c0.01672-0.01587,0.0293-0.03418,0.04492-0.05139
		c0.03265-0.03577,0.06799-0.06824,0.09589-0.10974l4.8667-7.22217C48.94043,32.97143,49,32.7771,49,32.57788V10.21167
		C49,9.65499,48.51478,9.21167,48.00049,9.21167z M12.69287,11.19995L45.875,11.21118l-3.2124,3.88232H5.80273L12.69287,11.19995z
		 M42.1333,38.80005H3V17.0935h39.1333V38.80005z M44.1333,36.52685v-20.073L47,12.98925v19.28296L44.1333,36.52685z" class="color010101 svgShape"/><path fill="#fff" d="M7.19781 31.0813c.44415.04541.88275.06836 1.31512.06836 1.44873 0 2.52814-.43018 2.52814-1.87915 0-.85986-.6167-1.40894-1.49451-1.5376-.00555 0-.00836-.00562-.00836-.01709 0-.00549.00281-.0083.00836-.0083.73358-.14233 1.27277-.67651 1.27277-1.401 0-1.04187-.7973-1.56287-2.39191-1.56287-.3927 0-.80005.02246-1.22131.06812-.14246.01147-.25928.06982-.35034.17505-.09106.10571-.13623.22949-.13623.37158v5.17615C6.71954 30.81797 6.91928 31.05796 7.19781 31.0813zM7.89777 25.80261c0-.05115.02295-.0824.06879-.09387.14185-.02258.31281-.03406.51233-.03406.4386 0 .75421.06531.94812.19641.19324.13098.29059.33301.29059.60645 0 .28467-.11823.49951-.35455.64478s-.61932.21777-1.14899.21777h-.2475c-.04584 0-.06879-.02563-.06879-.07666V25.80261zM7.89777 28.29663c0-.04553.02295-.06812.06879-.06812H8.2655c.58667 0 1.00647.07544 1.25952.22632.25372.15076.38019.38574.38019.70483 0 .81372-.55573 1.05896-1.36658 1.05896-.17651 0-.3642-.01428-.56372-.04285-.05145-.01135-.07715-.03955-.07715-.08545V28.29663zM14.22742 31.14965c1.53693 0 2.30566-.7688 2.30566-2.3064v-3.52759c0-.26514-.2243-.48657-.48657-.48657h-.20502c-.26208 0-.48657.22119-.48657.48657v3.59619c0 .44409-.08966.76416-.26904.96094-.17932.19629-.46014.29468-.84174.29468-.38165 0-.66174-.09839-.84113-.29468-.17932-.19678-.26898-.51685-.26898-.96094v-3.59619c0-.26343-.22314-.48657-.4873-.48657h-.23907c-.26208 0-.48657.22119-.48657.48657v3.52759C11.92108 30.38086 12.68988 31.14965 14.22742 31.14965zM18.07068 25.81958h1.14484c.04523 0 .06812.02576.06812.07715v4.68054c0 .26575.22502.48694.48663.48694h.23907c.26358 0 .4873-.22304.4873-.48694v-4.68054c0-.05139.02222-.07715.06812-.07715h1.14484c.26013 0 .48657-.21143.48657-.47827v-.02563c0-.26208-.22168-.48657-.48657-.48657h-3.63892c-.26428 0-.48657.22241-.48657.48657v.02563C17.58411 25.61169 17.81287 25.81958 18.07068 25.81958zM23.60583 25.81958h1.14484c.04523 0 .06812.02576.06812.07715v4.68054c0 .26575.22502.48694.48663.48694h.23907c.26358 0 .4873-.22304.4873-.48694v-4.68054c0-.05139.02222-.07715.06812-.07715h1.14484c.26013 0 .48657-.21143.48657-.47827v-.02563c0-.26208-.22168-.48657-.48657-.48657h-3.63892c-.26428 0-.48657.22241-.48657.48657v.02563C23.11926 25.61169 23.34802 25.81958 23.60583 25.81958zM29.3537 31.06421h2.90417c.26324 0 .48724-.22278.48724-.48694 0-.26697-.22693-.47815-.48724-.47815h-2.11798c-.05145 0-.07715-.02576-.07715-.0769v-1.70825c0-.05139.0257-.07715.07715-.07715h1.97272c.27216 0 .46155-.20972.46155-.45239 0-.24097-.18811-.4613-.46155-.4613h-1.97272c-.05145 0-.07715-.02576-.07715-.07678v-1.37524c0-.05151.0257-.0769.07715-.0769h2.11798c.25653 0 .48724-.20825.48724-.47852 0-.26367-.22345-.48657-.48724-.48657H29.3537c-.26202 0-.48657.22119-.48657.48657v5.2616c0 .13098.04797.245.14526.34167C29.10901 31.01587 29.22302 31.06421 29.3537 31.06421zM34.49615 31.06421h.21338c.26764 0 .47821-.22595.47821-.48694v-1.87048c0-.05115.02576-.0769.07715-.0769h.39276c.31903 0 .54425.04272.67493.12793.13074.08545.2475.26489.35034.53833l.47827 1.31519c.10339.27522.3617.45288.65753.45288h.26489c.23091 0 .388-.23577.30719-.45288l-.51227-1.34082c-.19324-.50085-.42682-.83691-.70001-1.00793-.00623 0-.00903-.00549-.00903-.01697 0-.00562.00281-.00879.00903-.00879.36981-.125.66455-.34155.88348-.64893.21967-.3075.3288-.66333.3288-1.06763 0-.56372-.20782-1.00098-.62347-1.31128-.41571-.3103-1.04199-.46533-1.87891-.46533-.44971 0-.91687.02246-1.40063.06812-.13696.01147-.25092.07117-.34198.1792-.09106.10852-.13629.23083-.13629.36743v5.21887C34.00952 30.84302 34.23454 31.06421 34.49615 31.06421zM35.18774 25.80261c0-.04553.02576-.0741.07715-.08557.18768-.02808.36707-.04236.53802-.04236.93982 0 1.40973.32141 1.40973.96521 0 .72314-.50677 1.08472-1.52094 1.08472h-.42682c-.05139 0-.07715-.02271-.07715-.06848V25.80261z" class="color010101 svgShape"/></svg></svg>