<svg xmlns="http://www.w3.org/2000/svg" xmlns:svgjs="http://svgjs.com/svgjs" xmlns:xlink="http://www.w3.org/1999/xlink" width="288" height="288"><svg xmlns="http://www.w3.org/2000/svg" width="288" height="288" viewBox="0 0 32 32"><path fill="#fff" d="M23 16.7c-.1 0-.3 0-.4-.1l-3.2-3.2c-.2-.2-.2-.5 0-.7s.5-.2.7 0l3.2 3.2c.2.2.2.5 0 .7-.1.1-.2.1-.3.1zm-6.3-.9c-.1 0-.3 0-.4-.1l-3.2-3.2c-.2-.2-.2-.5 0-.7s.5-.2.7 0L17 15c.2.2.2.5 0 .7-.1.1-.2.1-.3.1zm0 5.4c-.1 0-.3 0-.4-.1L14 18.8c-.2-.2-.2-.5 0-.7s.5-.2.7 0l2.3 2.3c.2.2.2.5 0 .7-.1.1-.2.1-.3.1zm-5.4 0c-.1 0-.3 0-.4-.1l-2.3-2.3c-.2-.2-.2-.5 0-.7s.5-.2.7 0l2.3 2.3c.2.2.2.5 0 .7-.1.1-.2.1-.3.1zm-.9 4.6c-.1 0-.3 0-.4-.1l-1.4-1.4c-.2-.2-.2-.5 0-.7s.5-.2.7 0l1.4 1.4c.2.2.2.5 0 .7-.1 0-.2.1-.3.1zm-4.6.9c-.1 0-.3 0-.4-.1L4 25.2c-.2-.2-.2-.5 0-.7.2-.2.5-.2.7 0l1.4 1.4c.2.2.2.5 0 .7 0 0-.1.1-.3.1z" class="color000 svgShape"/><path fill="#fff" d="M4.7 30c-.7 0-1.4-.3-1.9-.8-.9-.9-1.1-2.5-.3-3.5L15 9.1c.8-1 1.9-1.6 3.2-1.7 1.2-.1 2.5.4 3.4 1.3l1.9 1.9c.9.9 1.3 2.1 1.3 3.4-.1 1.3-.7 2.4-1.7 3.2L6.3 29.5c-.5.3-1 .5-1.6.5zM18.4 8.4h-.2c-1 .1-1.8.5-2.4 1.3L3.3 26.3c-.5.7-.4 1.6.2 2.2.6.6 1.5.7 2.2.2l16.6-12.4c.8-.6 1.3-1.5 1.3-2.4s-.3-1.9-1-2.6l-1.9-1.9c-.6-.7-1.4-1-2.3-1z" class="color000 svgShape"/><path fill="#fff" d="M22.5 10.9c-.1 0-.3 0-.4-.1l-.9-.9c-.2-.2-.2-.4-.1-.6l3.4-4.8c.4-.5.9-.8 1.5-.9.6-.1 1.2.2 1.7.6s.7 1.1.6 1.7c-.1.6-.4 1.2-.9 1.5l-4.8 3.4c.1.1 0 .1-.1.1zm-.2-1.5.3.3L27 6.6c.3-.2.4-.5.5-.8 0-.3-.1-.6-.3-.9-.2-.2-.5-.4-.9-.3-.3 0-.6.2-.8.5l-3.2 4.3z" class="color000 svgShape"/><path fill="#fff" d="M22.5 10.9c-.1 0-.3 0-.4-.1l-.9-.9c-.2-.2-.2-.4-.1-.6l3.4-4.8c.4-.5.9-.8 1.5-.9.6-.1 1.2.2 1.7.6s.7 1.1.6 1.7c-.1.6-.4 1.2-.9 1.5l-4.8 3.4c.1.1 0 .1-.1.1zm-.2-1.5.3.3L27 6.6c.3-.2.4-.5.5-.8 0-.3-.1-.6-.3-.9-.2-.2-.5-.4-.9-.3-.3 0-.6.2-.8.5l-3.2 4.3z" class="color000 svgShape"/><path fill="#fff" d="M22.6 11c-.1 0-.3-.1-.4-.1l-.1-.1c-.1-.1-.2-.2-.1-.4 0-.1.1-.3.2-.4L27 6.6l.1-.1c.1-.1.2-.1.2-.2.6-.2 1.1-.1 1.6.2.5.3.8.7 1 1.3.2.6.1 1.2-.3 1.8s-.9.8-1.5.9l-5.5.5c.1 0 .1 0 0 0zm5.4-1zm-.3-2.7c-.1 0-.1.1-.1.1l-3.5 2.5 3.9-.4c.3 0 .6-.2.8-.5.2-.3.2-.6.2-.9-.1-.3-.3-.5-.5-.7-.3-.1-.5-.2-.8-.1zM21.6 10c-.1 0-.3-.1-.4-.1l-.1-.1c-.1-.2-.1-.3-.1-.5l.5-5.4c.1-.6.4-1.2.9-1.5.5-.4 1.2-.5 1.8-.3.5.1 1 .5 1.3 1 .3.5.4 1.1.2 1.6 0 .1-.1.2-.1.2-.1.1-.2.1-.2.1L22 9.8c-.1.1-.2.2-.4.2zm.9-6-.4 3.9 2.5-3.5c0-.1.1-.1.1-.1 0-.3 0-.5-.1-.7-.1-.3-.4-.4-.7-.5-.3-.1-.6-.1-.9.1-.3.2-.5.5-.5.8z" class="color000 svgShape"/></svg></svg>