<svg xmlns="http://www.w3.org/2000/svg" xmlns:svgjs="http://svgjs.com/svgjs" xmlns:xlink="http://www.w3.org/1999/xlink" width="288" height="288"><svg xmlns="http://www.w3.org/2000/svg" width="288" height="288" viewBox="0 0 128 128"><path fill="#fff" fill-rule="evenodd" d="M56.978 45.031c.753.411 3.704 2.244 3.844 2.022 3.62-5.734-2.369-19.198-3.792-24.098-.388-1.336-1.421-5.505-.338-8.956-.765 2.438-1.673 4.878-1.667 7.795.017 7.664 4.878 15.417 1.877 22.912-.033.082-.033.266.076.325zm11.007 0c.753.411 3.704 2.244 3.844 2.022 3.62-5.734-2.369-19.198-3.792-24.098-.388-1.336-1.421-5.505-.338-8.956-.765 2.438-1.673 4.878-1.667 7.795.017 7.664 4.878 15.417 1.877 22.912-.032.082-.032.266.076.325zM90.677 58.69c-.807-.91-2.028-.836-3.406-.878-.531-.018-1.337.088-1.698-.291-.44-.462-.246-1.491-.265-2.071-.047-1.301-.145-2.683-.827-3.145-.681-.459-3.158-.226-4.775-.226H49.504c-1.793 0-3.841-.317-5.107 0-1.236.311-1.299 1.969-1.378 3.504-.065 1.248-.485 2.211-1.877 2.114-1.619-.111-3.23-.146-3.962.933-.988 1.459-.614 2.996-.224 6.1h54.188c.273-2.501.704-4.719-.467-6.04zm-49.501 8.414c1.306 13.016 2.59 26.055 3.886 39.082h1.729c.357 2.174.87 5.893 1.27 7.814h32.2c.161-2.088.935-5.516 1.249-7.814h1.749c1.276-13.16 2.635-26.236 3.888-39.421H41.288c-.132.019-.123.178-.112.339z" class="color000 svgShape" clip-rule="evenodd"/></svg></svg>