<svg xmlns="http://www.w3.org/2000/svg" xmlns:svgjs="http://svgjs.com/svgjs" xmlns:xlink="http://www.w3.org/1999/xlink" width="288" height="288"><svg xmlns="http://www.w3.org/2000/svg" width="288" height="288" fill="none" viewBox="0 0 100 100"><path fill="#fff" d="M62.8301 48.56C61.1812 53.6605 58.9143 58.5401 56.0801 63.09C56.1639 63.6497 56.2808 64.204 56.4301 64.75C56.4496 64.8893 56.4496 65.0307 56.4301 65.17C56.4167 65.4461 56.3298 65.7137 56.1783 65.9449C56.0267 66.1761 55.8161 66.3626 55.5682 66.485C55.3203 66.6075 55.0442 66.6613 54.7685 66.6411C54.4927 66.6209 54.2274 66.5273 54.0001 66.37C53.0667 67.7033 52.0934 69.0367 51.0801 70.37C54.6001 78.45 62.4101 82.27 69.8401 82.37H70.0001C79.5901 82.37 89.8901 76.04 90.0001 62.07C90.0001 61.81 90.0001 61.55 90.0001 61.3C90.0001 61.05 90.0001 60.83 90.0001 60.6C90.0701 50.2 87.9201 39.46 84.1101 31.12C80.3001 22.78 75.0001 17.7 69.8501 17.67H69.7901C65.6901 17.67 61.5401 20.67 58.0101 26.17C59.0659 26.6141 60.0395 27.2327 60.8901 28C65.0801 31.82 65.7701 39.12 62.8301 48.56ZM70.2301 76.1V76.18C70.2068 76.5921 70.0212 76.9783 69.7138 77.2538C69.4064 77.5293 69.0023 77.6718 68.5901 77.65C66.0719 77.5483 63.6106 76.8707 61.3952 75.6694C59.1797 74.468 57.2691 72.7749 55.8101 70.72C55.5774 70.3812 55.4879 69.9642 55.5609 69.5598C55.634 69.1553 55.8636 68.796 56.2001 68.56C56.3674 68.4435 56.5561 68.3612 56.7553 68.3177C56.9545 68.2743 57.1604 68.2706 57.361 68.3068C57.5616 68.343 57.7532 68.4185 57.9246 68.5289C58.0961 68.6392 58.244 68.7823 58.3601 68.95C59.55 70.6157 61.1065 71.986 62.9096 72.9552C64.7127 73.9244 66.7143 74.4666 68.7601 74.54C69.158 74.563 69.5321 74.7374 69.8054 75.0275C70.0788 75.3176 70.2307 75.7014 70.2301 76.1V76.1Z" class="color000 svgShape"/><path fill="#fff" d="M61.8601 48.26C64.6401 39.34 64.0401 32.26 60.2001 28.75C58.0102 26.9379 55.2183 26.0168 52.3801 26.17C42.4501 26.17 27.7101 34.1 16.3201 46.62C10.5601 53 8.66005 60.37 10.9401 67.53C12.0945 71.073 14.1446 74.2577 16.8918 76.7753C19.639 79.293 22.99 81.0582 26.6201 81.9C33.5201 83.4 40.2301 81.01 45.5301 75.18L46.0701 74.63C46.2401 74.47 46.4001 74.3 46.5601 74.13C53.5601 66.44 59.1301 57 61.8601 48.26ZM21.4601 72.5L21.4101 72.56C21.1195 72.85 20.7256 73.0129 20.3151 73.0129C19.9045 73.0129 19.5107 72.85 19.2201 72.56C17.41 70.8056 16.0276 68.6586 15.1797 66.2848C14.3318 63.911 14.0411 61.374 14.3301 58.87C14.3818 58.4615 14.5936 58.0904 14.919 57.8381C15.2444 57.5859 15.6566 57.4732 16.0651 57.525C16.4735 57.5767 16.8446 57.7885 17.0969 58.1139C17.3491 58.4393 17.4618 58.8515 17.4101 59.26C17.1832 61.2944 17.4258 63.3537 18.1192 65.2797C18.8127 67.2057 19.9384 68.9471 21.4101 70.37C21.6913 70.6501 21.8535 71.028 21.8628 71.4249C21.8722 71.8218 21.7279 72.2069 21.4601 72.5ZM21.5301 50.88C20.4329 52.0635 19.5042 53.3927 18.7701 54.83C18.7113 54.9599 18.6301 55.0783 18.5301 55.18C18.3055 55.4339 18.0029 55.6061 17.6699 55.6694C17.3368 55.7328 16.9922 55.6837 16.6901 55.53C16.3228 55.3455 16.0438 55.0229 15.9144 54.6328C15.785 54.2428 15.8158 53.8173 16.0001 53.45C16.8573 51.7555 17.9442 50.1874 19.2301 48.79C19.5072 48.485 19.8942 48.3025 20.3058 48.2829C20.7175 48.2632 21.1201 48.4078 21.4251 48.685C21.7301 48.9621 21.9125 49.3491 21.9322 49.7607C21.9518 50.1724 21.8072 50.575 21.5301 50.88V50.88Z" class="color000 svgShape"/></svg></svg>