<svg xmlns="http://www.w3.org/2000/svg" xmlns:svgjs="http://svgjs.com/svgjs" xmlns:xlink="http://www.w3.org/1999/xlink" width="288" height="288"><svg xmlns="http://www.w3.org/2000/svg" width="288" height="288" viewBox="0 0 32 32"><path fill="#fff" d="M24,11a.8.8,0,0,0-.06-.3.64.64,0,0,0,0-.07s0,0,0,0L22,6.76V3a1,1,0,0,0-1-1H11a1,1,0,0,0-1,1V6.76L8.11,10.55l0,0a.64.64,0,0,0,0,.07A.8.8,0,0,0,8,11s0,0,0,0V29a1,1,0,0,0,1,1H23a1,1,0,0,0,1-1V11S24,11,24,11ZM11.62,8h8.76l1,2H10.62ZM12,4h8V6H12ZM22,28H10V12H22ZM16,18a4,4,0,0,0,4-4,1,1,0,0,0-1-1H13a1,1,0,0,0-1,1A4,4,0,0,0,16,18Zm1.73-3a2,2,0,0,1-3.46,0Zm-.84,4.55a1,1,0,0,0-1.78,0l-1.66,3.32a2.85,2.85,0,1,0,5.1,0Zm-.16,5a.85.85,0,0,1-1.49-.83L16,22.24l.76,1.52A.84.84,0,0,1,16.73,24.59Z" class="color000 svgShape"/></svg></svg>