<svg xmlns="http://www.w3.org/2000/svg" xmlns:svgjs="http://svgjs.com/svgjs" xmlns:xlink="http://www.w3.org/1999/xlink" width="288" height="288"><svg xmlns="http://www.w3.org/2000/svg" width="288" height="288" viewBox="0 0 43.969 60"><path fill="#fff" fill-rule="evenodd" d="M33.052 36.007H25.01a2 2 0 1 1 0-4h8.042a2 2 0 1 1 0 4zm0 8H25.01a2 2 0 1 1 0-4h8.042a2 2 0 1 1 0 4zM7.031 9.42L.416 17.88a1.918 1.918 0 0 0-.422 1.22V58a2.011 2.011 0 0 0 2.011 2h39.968a2 2 0 0 0 2.011-2V19.08a2.215 2.215 0 0 0-.04-.38 1.234 1.234 0 0 0-.121-.38 1.6 1.6 0 0 0-.161-.32c-.04-.04-.06-.1-.1-.14l-7.037-9a1.4 1.4 0 0 0-.241-.24V2a2.011 2.011 0 0 0-2.011-2H9.041a2.011 2.011 0 0 0-2.01 2v7.42M11.052 4h21.211v4.1H11.052V4zm3.016 52H4.015V19.78l5.026-6.42 5.027 6.42V56zm-.925-43.9h20.808l3.921 5H17.063zM39.963 56H18.089V21.1h21.874V56z" class="color000 svgShape"/></svg></svg>