<svg xmlns="http://www.w3.org/2000/svg" xmlns:svgjs="http://svgjs.com/svgjs" xmlns:xlink="http://www.w3.org/1999/xlink" width="288" height="288"><svg xmlns="http://www.w3.org/2000/svg" width="288" height="288" viewBox="0 0 100 100"><path fill="#fff" d="m45.079 25.989 2.377.213-2.352-.421c-.001.013-.013.078-.025.208l2.377.213-2.352-.421.056.01-.056-.011v.001l.056.01-.056-.011c-.002.044-.175.719-.585 1.669-.609 1.443-1.719 3.527-3.232 5.821-1.513 2.301-3.426 4.834-5.629 7.364-3.22 3.707-6.557 6.8-9.249 8.826-1.337 1.014-2.513 1.757-3.296 2.172a7.924 7.924 0 0 1-.801.383l-.06.022.018.05-.016-.05h-.002l.018.05-.016-.05.877 2.744-.589-2.816c-.177.037-.265.065-.288.072l.877 2.744-.589-2.816c-7.568 1.584-12.42 9.003-10.836 16.57 1.584 7.568 9.003 12.42 16.57 10.836a26.472 26.472 0 0 0 4.285-1.3c2.299-.908 4.37-2.02 6.413-3.29 3.05-1.908 6.021-4.193 8.997-6.831 2.97-2.637 5.928-5.627 8.806-8.933 4.326-4.978 7.921-10.011 10.69-14.929 1.385-2.467 2.564-4.907 3.516-7.42.474-1.259.891-2.54 1.232-3.883.341-1.345.61-2.751.751-4.299.689-7.701-4.995-14.503-12.696-15.193-7.7-.689-14.501 4.995-15.191 12.696z" class="colorDCD5B8 svgShape"/><path fill="#fff" d="M85.25 71.635c-1.699.465-3.923.772-6.405.77-1.487 0-3.069-.106-4.697-.336-2.591-.362-4.986-.994-7.011-1.771-2.025-.772-3.676-1.701-4.771-2.531a9 9 0 0 0-10.833 14.375c2.711 2.038 5.788 3.667 9.163 4.964 3.374 1.292 7.05 2.24 10.949 2.789 2.448.344 4.856.511 7.2.511 3.914-.003 7.645-.457 11.122-1.398 4.797-1.303 7.63-6.247 6.327-11.044s-6.247-7.632-11.044-6.329zm-43.944-43.37c-1.825 2.732-4.668 6.247-8.075 9.784l.003-.003a86.313 86.313 0 0 1-5.932 5.625c-1.87 1.604-3.601 2.91-4.968 3.798a7.499 7.499 0 0 0-2.195 10.377 7.499 7.499 0 0 0 10.377 2.195c2.091-1.362 4.273-3.033 6.548-4.98a101.79 101.79 0 0 0 6.975-6.608l.003-.004c3.938-4.099 7.254-8.149 9.728-11.835a7.5 7.5 0 0 0-2.058-10.405 7.498 7.498 0 0 0-10.406 2.056z" class="colorC1E168 svgShape"/><path fill="#fff" d="M80.861 67.647c-1.317.557-3.214.876-5.203.876-2.01 0-3.92-.325-5.241-.892a1.501 1.501 0 0 0-1.184 2.757c1.706.731 3.988 1.135 6.425 1.135 2.41 0 4.673-.396 6.371-1.113a1.5 1.5 0 1 0-1.168-2.763zM63.079 13.088c-2.253-2.252-6.475-3.492-11.89-3.492-9.101 0-22.429 3.603-32.54 13.716C3.326 38.634-1.165 58.15 8.425 67.742c3.262 3.261 7.852 4.984 13.274 4.984 9.986 0 21.634-5.685 31.156-15.208 14.553-14.554 16.666-37.986 10.224-44.43zM11.96 64.207c-7.354-7.355-2.671-24.464 10.225-37.36 9.042-9.043 21.276-12.251 29.005-12.251 4.664 0 7.374 1.048 8.354 2.028 3.511 3.512 3.35 19.767-6.319 32.814l-2.677-1.56a.75.75 0 1 0-.755 1.296l2.51 1.463a40.947 40.947 0 0 1-2.53 2.875l-3.575-2.955a.75.75 0 0 0-.955 1.157l3.463 2.862a58.028 58.028 0 0 1-2.451 2.253l-1.409-1.371a.75.75 0 0 0-1.047 1.076l1.297 1.262a55.714 55.714 0 0 1-2.76 2.121l-2.143-2.757a.75.75 0 1 0-1.184.921l2.094 2.694a50.795 50.795 0 0 1-2.936 1.834l-1.18-2.313a.75.75 0 1 0-1.336.682l1.207 2.367a44.227 44.227 0 0 1-3.197 1.569l-.816-2.961a.75.75 0 1 0-1.445.399l.865 3.141a36.138 36.138 0 0 1-3.635 1.224l-.335-1.827a.75.75 0 1 0-1.475.27l.351 1.916c-1.884.422-3.721.653-5.471.653-4.069-.002-7.436-1.219-9.74-3.522z" class="color332F2D svgShape"/><path fill="#fff" d="M30.441 28.771c.308 0 .618-.094.886-.29.438-.322.878-.629 1.318-.922a1.5 1.5 0 0 0-1.664-2.497c-.476.317-.952.65-1.428.999a1.5 1.5 0 0 0 .888 2.71zm-10.483 9.687a1.5 1.5 0 0 0 2.091-.36c1.474-2.087 3.221-4.144 5.19-6.113l.379-.372a1.5 1.5 0 0 0-2.09-2.153l-.41.404c-2.09 2.09-3.947 4.278-5.521 6.504a1.5 1.5 0 0 0 .361 2.09zM78.521 57.51c-4.12 0-8.904.756-12.61 1.414-1.114.197-2.121.361-3.067.516-1.658.27-3.224.524-4.853.879-6.579 1.429-10.666 5.881-10.666 11.617s4.087 10.188 10.665 11.618c1.616.351 3.168.604 4.811.871.959.156 1.979.322 3.11.523 3.713.658 8.502 1.414 12.61 1.414 7.611 0 13.804-6.472 13.804-14.427 0-7.954-6.192-14.425-13.804-14.425zm4.508 22.508-.209-2.098a.75.75 0 0 0-1.492.149l.269 2.688a8.224 8.224 0 0 1-3.075.605l-.165-.004.003-2.867a.75.75 0 0 0-.749-.75h-.001a.75.75 0 0 0-.75.749l-.003 2.824a51.355 51.355 0 0 1-2.948-.236l.135-1.587a.75.75 0 0 0-.684-.811.758.758 0 0 0-.811.684l-.131 1.539a119.883 119.883 0 0 1-5.633-.879c-1.157-.205-2.2-.375-3.181-.535-1.645-.268-3.064-.499-4.552-.822-1.578-.343-6.728-1.842-6.728-6.731s5.148-6.388 6.729-6.73c1.5-.327 2.934-.561 4.593-.83.969-.158 1.998-.325 3.139-.527 3.231-.574 7.965-1.338 11.736-1.338 4.854 0 8.804 4.229 8.804 9.426 0 3.431-1.727 6.432-4.296 8.081zM50.847 31.845c3.207-4.721 3.961-7.503 2.443-9.02-.339-.339-.953-.743-1.956-.743-3.989 0-12.905 7.13-19.972 14.197-6.348 6.348-16.273 19.105-13.454 21.929.262.261.734.572 1.504.572 3.027 0 12.16-5.762 20.424-14.027 4.508-4.507 8.418-9.091 11.011-12.908zM20.742 55.374c1.3-3.014 5.688-9.921 12.741-16.974 8.552-8.552 15.201-12.804 17.528-13.271-.368 1.991-4.272 8.48-13.297 17.503-7.052 7.054-13.959 11.442-16.972 12.742z" class="color332F2D svgShape"/></svg></svg>