<svg xmlns="http://www.w3.org/2000/svg" xmlns:svgjs="http://svgjs.com/svgjs" xmlns:xlink="http://www.w3.org/1999/xlink" width="288" height="288"><svg xmlns="http://www.w3.org/2000/svg" width="288" height="288" viewBox="0 0 32 32"><g fill="#fff" class="color000 svgShape" data-name="Layer 2"><path d="M26.718,5.4a8.3,8.3,0,0,0-5.689-3.372,6.625,6.625,0,0,0-4.591,1.193,5.465,5.465,0,0,0-2.032,3.585A5.164,5.164,0,0,1,13.3,9.331a3.972,3.972,0,0,1-2.771,1.235A7.853,7.853,0,0,0,6.444,12.2,9.911,9.911,0,0,0,3.1,21.084c.723,4.971,5.444,8.192,9.733,8.807a10.67,10.67,0,0,0,1.5.106c3.648,0,7.275-1.884,10.356-5.415C29.52,19.039,30.45,10.256,26.718,5.4Z" class="colorf4ae40 svgShape"/><circle cx="14.004" cy="23" r=".996" fill="#52cc99" class="colore57f25 svgShape"/><circle cx="21.004" cy="10" r=".996" fill="#52cc99" class="colore57f25 svgShape"/><circle cx="9.996" cy="17" r=".996" fill="#52cc99" class="colore57f25 svgShape"/><circle cx="19.996" cy="17" r=".996" fill="#52cc99" class="colore57f25 svgShape"/></g></svg></svg>