<svg xmlns="http://www.w3.org/2000/svg" xmlns:svgjs="http://svgjs.com/svgjs" xmlns:xlink="http://www.w3.org/1999/xlink" width="288" height="288"><svg xmlns="http://www.w3.org/2000/svg" width="288" height="288" viewBox="0 0 16.933 16.933"><path fill="#fff" d="M8.993 1.058c-.934 0-1.525.178-1.968.46-.443.282-.72.638-1.091.97-.321.286-.78.542-1.138.933-.359.392-.582.963-.383 1.714.04.15.036.46 0 .83-.037.37-.1.807-.136 1.256-.012.152-.02.305-.024.46.16.13.29.27.411.388.253.243.518.489.667.586a7.062 7.062 0 0 0 .67.377c.003.003.014.009.023.014l.007.003.006.004.068.033a.509.509 0 0 1 .01.005c.064.033.139.058.204.09.197-.72.476-1.406.909-2.034a3.73 3.73 0 0 1-.338-1.04c-.148-.895.013-2.125 1.142-3.37a.265.265 0 1 1 .395.356c-.46.506-.728.99-.882 1.439 0 0 .697.353 1.3-.217a.265.265 0 1 1 .365.384c-.728.688-1.578.428-1.799.345-.057.358-.043.686.006.976.041.251.11.468.18.65.41-.47.926-.899 1.587-1.273.499-.283.464-.129.767-.701.456-.861 1.214-1.335 1.79-1.632.004-.064.01-.127.016-.194a1.24 1.24 0 0 0-.035-.5c-.059-.186-.182-.367-.383-.558-.817-.771-1.986-.754-2.346-.754zm3.215 2.387a.266.266 0 0 0-.108.028c-.55.274-1.275.709-1.678 1.47-.338.639-.52.657-.976.915-1.63.924-2.263 2.106-2.641 3.54.648.27 1.34.534 2.094 1.067.343.243.67.515.97.81.07-.07.15-.15.253-.267a5.165 5.165 0 0 0 1.298-3.466.265.265 0 1 1 .529.002 5.72 5.72 0 0 1-1.714 4.12c.56.66.939 1.431.939 2.317 0 .324-.023.861-.128 1.358.556-.219 1.07-.508 1.51-.905 1.064-.965 1.731-2.406 1.731-4.256 0-1.21-.276-2.67-.641-3.928a13.522 13.522 0 0 0-.597-1.679c-.21-.47-.409-.829-.646-1.053a.267.267 0 0 0-.195-.073zM3.422 7.858a.498.498 0 0 0-.315.099.731.731 0 0 0-.212.298c-.096.22-.145.482-.18.748-.07.532-.07 1.075-.07 1.075 0 3.204 2.555 5.645 5.555 5.797-.73-2.21-3.112-4.134-3.112-4.134a.265.265 0 1 1 .33-.415s2.575 2.005 3.333 4.512l.007.03c.791-.03 1.19-.094 1.69-.323a.258.258 0 0 1 .011-.048c.142-.46.183-1.156.183-1.516 0-1.235-.912-2.277-2.05-3.083-.94-.666-1.83-.876-2.721-1.335-.029-.014-.056-.03-.085-.043l-.04-.022a7.532 7.532 0 0 1-.707-.4c-.226-.147-.492-.405-.744-.647-.252-.243-.464-.478-.761-.574a.404.404 0 0 0-.112-.019z" class="color000 svgShape"/></svg></svg>