<svg xmlns="http://www.w3.org/2000/svg" xmlns:svgjs="http://svgjs.com/svgjs" xmlns:xlink="http://www.w3.org/1999/xlink" width="288" height="288"><svg xmlns="http://www.w3.org/2000/svg" width="288" height="288" viewBox="0 0 91 91"><path fill="#fff" d="M75.619 50.601h-3.885V26.805c0-11.151-9.072-20.224-20.223-20.224s-20.224 9.072-20.224 20.224V30.4h-7.331a2.17 2.17 0 0 0-1.73.87l-5.981 8.044a2.183 2.183 0 0 0-.425 1.19L13.964 82.17a2.162 2.162 0 0 0 2.156 2.249h36.919c.61 0 1.195-.262 1.607-.72.404-.453.6-1.06.536-1.67l-2.188-20.08a1.081 1.081 0 0 0-.001-.559c-.016-.054-.052-.093-.075-.143l-2.274-20.885a2.14 2.14 0 0 0-.424-1.062l-5.971-8.031a2.168 2.168 0 0 0-1.729-.869h-8.981v-3.595c0-9.911 8.063-17.974 17.974-17.974 9.91 0 17.973 8.063 17.973 17.974v23.796h-3.307c-.783 0-1.42.637-1.42 1.42v12.391c0 .783.637 1.42 1.42 1.42h9.441c.782 0 1.419-.637 1.419-1.42V52.021a1.422 1.422 0 0 0-1.42-1.42zM44.828 82.169H16.216l.397-8.995 29.619-8.639-1.404 17.634zm4.731-31.062 1.074 9.8-1.899.554.825-10.354zm1.323 12.072 2.083 18.99h-5.881l1.458-18.308 2.34-.682zm-8.438-30.568 5.72 7.672-1.74 21.852-29.705 8.664 1.332-30.145 5.906-8.005 7.331-.015v3.571a1.125 1.125 0 0 0 2.25 0V32.63l8.906-.019zm32.344 30.97h-7.78v-10.73h7.78v10.73z" class="color000 svgShape"/><path fill="#fff" d="M20.408 80.835c.301 0 .591-.12.801-.33s.329-.5.329-.8-.119-.59-.329-.79c-.41-.42-1.181-.42-1.591-.01-.21.21-.33.5-.33.8s.12.59.33.79c.21.22.5.34.79.34zM28.809 80.835c.3 0 .59-.12.8-.33s.33-.5.33-.8-.12-.59-.33-.79c-.41-.42-1.17-.42-1.59 0-.21.2-.33.49-.33.79s.12.59.33.8.5.33.79.33zM37.209 80.835c.3 0 .59-.12.8-.33s.33-.5.33-.8-.12-.59-.33-.79c-.41-.42-1.181-.42-1.59-.01-.21.21-.33.5-.33.8s.12.59.33.79c.21.22.5.34.79.34zM24.608 76.285c.3 0 .59-.12.8-.33s.33-.5.33-.8c0-.29-.12-.58-.33-.801-.42-.409-1.159-.42-1.59.011-.21.21-.33.5-.33.79a1.13 1.13 0 0 0 1.12 1.13zM33.019 76.285c.29 0 .58-.12.79-.33s.33-.5.33-.8c0-.29-.12-.58-.33-.801-.42-.409-1.16-.42-1.59.011-.21.21-.33.5-.33.79 0 .3.12.59.33.8s.5.33.8.33zM41.408 76.285c.301 0 .591-.12.801-.33a1.135 1.135 0 0 0 0-1.601c-.421-.409-1.171-.42-1.591.011-.21.21-.33.5-.33.79a1.13 1.13 0 0 0 1.12 1.13zM50.408 80.835c.301 0 .591-.12.801-.33s.329-.5.329-.8c0-.29-.119-.58-.329-.79-.41-.42-1.171-.42-1.591-.01a1.136 1.136 0 0 0 0 1.6c.21.21.5.33.79.33zM37.209 71.835c.3 0 .59-.12.8-.33s.33-.5.33-.8-.12-.59-.33-.79c-.41-.42-1.17-.42-1.59 0-.21.2-.33.49-.33.79s.12.59.33.8.5.33.79.33z" class="color000 svgShape"/></svg></svg>