<?xml version="1.0" encoding="utf-8"?><svg version="1.1" id="Layer_1" xmlns="http://www.w3.org/2000/svg" xmlns:xlink="http://www.w3.org/1999/xlink" x="0px" y="0px" viewBox="0 0 84.3 122.88" style="enable-background:new 0 0 84.3 122.88" xml:space="preserve"><g><path d="M11.97,18.89V2.33C11.97,1.04,13.01,0,14.3,0h55.79c1.28,0,2.33,1.04,2.33,2.33c0,0.08,0,0.16-0.01,0.23L72.24,18.5 L83.8,37.7c0.26,0.43,0.36,0.91,0.33,1.37l0.17,81.47c0,1.28-1.04,2.32-2.32,2.32v0.01H54.46c-0.07,0.01-0.15,0.01-0.22,0.01 c-0.08,0-0.15,0-0.22-0.01H2.33c-1.29,0-2.33-1.04-2.33-2.33V38.7c0-0.57,0.2-1.09,0.55-1.5L11.97,18.89L11.97,18.89z M29.8,61.38 c2.33,9.94,11.48,17.17,11.48,23.03c0,3.12-1.13,5.79-3.38,8.02c-2.26,2.23-4.96,3.35-8.1,3.35c-3.13,0-5.82-1.12-8.08-3.35 c-2.26-2.23-3.38-4.9-3.38-8.02C18.34,78.51,27.5,71.37,29.8,61.38L29.8,61.38L29.8,61.38z M56.57,41.14v77.08h23.09L79.5,41.14 H56.57L56.57,41.14z M51.91,118.22V41.14H4.65v77.08H51.91L51.91,118.22z M63.71,16.02h3.92l0.12-11.37H16.63v11.37h2.79v4.75 h-3.09c-0.05,0.08-0.1,0.16-0.15,0.24L6.82,36.49h46.2l12.57-15.71h-1.88V16.02L63.71,16.02z M53.83,16.02h5.07v4.75h-5.07V16.02 L53.83,16.02z M43.96,16.02h5.07v4.75h-5.07V16.02L43.96,16.02z M34.09,16.02h5.07v4.75h-5.07V16.02L34.09,16.02z M24.21,16.02 h5.07v4.75h-5.07V16.02L24.21,16.02z M69.61,23.15L58.95,36.49h18.69L69.61,23.15L69.61,23.15z"/></g></svg>