<svg xmlns="http://www.w3.org/2000/svg" xmlns:svgjs="http://svgjs.com/svgjs" xmlns:xlink="http://www.w3.org/1999/xlink" width="288" height="288"><svg xmlns="http://www.w3.org/2000/svg" width="288" height="288" data-name="Layer 1" viewBox="0 0 1000 1000"><path fill="#fff" d="M620.67,916a188.31,188.31,0,0,1-70.54-13.78c-33.73-13.62-66.53-13.62-100.26,0C387.2,927.52,316.59,917.48,265.59,876c-37.24-30.29-68.33-72.88-89.9-123.17-22-51.37-33.69-110-33.69-169.46,0-125.23,51.45-240.51,134.28-300.85,50.93-37.11,114.62-30.33,165.79-24.88a548.54,548.54,0,0,0,115.86,0c51.17-5.45,114.86-12.23,165.79,24.88C806.55,342.88,858,458.16,858,583.39c0,59.49-11.65,118.09-33.69,169.46-21.57,50.29-52.66,92.88-89.9,123.17A180,180,0,0,1,620.67,916ZM500,860.06a164.94,164.94,0,0,1,62.11,12.48c51.87,21,110.15,12.77,152.11-21.35C783.17,795.12,826,692.51,826,583.39c0-115.19-46.41-220.56-121.12-275-38-27.64-85.43-25.11-143.56-18.92a580.55,580.55,0,0,1-122.64,0c-58.13-6.19-105.61-8.72-143.56,18.92C220.41,362.83,174,468.2,174,583.39c0,109.12,42.83,211.73,111.78,267.8,42,34.12,100.24,42.3,152.11,21.35A164.94,164.94,0,0,1,500,860.06Z" class="color000 svgShape"/><path fill="#fff" d="M473.68,292.13a16,16,0,0,1-15.33-20.61c1.84-6.12,17.45-61.66-1-128.58-6.69-24.19,6.74-49.76,29.92-57a42.72,42.72,0,0,1,33.42,3.35,45.49,45.49,0,0,1,22,28.13C562.18,188,554.5,249,548.19,279.09a16,16,0,0,1-31.32-6.58,316.28,316.28,0,0,0-5-146.55,13.74,13.74,0,0,0-6.53-8.57,10.88,10.88,0,0,0-8.57-.89c-6.75,2.11-10.7,10.31-8.6,17.91,20.45,74,4.29,134.88.85,146.33A16,16,0,0,1,473.68,292.13Z" class="color000 svgShape"/></svg></svg>