<svg xmlns="http://www.w3.org/2000/svg" xmlns:svgjs="http://svgjs.com/svgjs" xmlns:xlink="http://www.w3.org/1999/xlink" width="288" height="288"><svg xmlns="http://www.w3.org/2000/svg" width="288" height="288" viewBox="0 0 8.467 8.467"><path d="M6.506.794a.265.265 0 0 0 0 .529h.351a.265.265 0 0 0 0-.53zm.083.793a.265.265 0 0 0-.238.276s-.003.143 0 .599c-.308.435-.402.625-.553 1.094-.276.909-1.18 1.613-2.157 1.825-.978.212-1.965.176-2.297.174-.214-.002-.418.122-.494.283a.587.587 0 0 0-.026.435c.16.537.54.927 1.075 1.139.535.212 1.222.277 2.094.258a3.955 3.955 0 0 0 2.595-1.045c.717-.674 1.177-1.949 1.069-3.216a1.386 1.386 0 0 0-.307-.775c-.12-.147-.177-.197-.205-.3l-.063-.483a.265.265 0 0 0-.266-.264h-.227zm-1.054 1.92c-.504.338-1.17.532-1.812.628-.823.122-1.606.098-1.87.094-.266-.002-.48.077-.53.269-.08.307.264.722.528.794h.013c.445-.01 1.152-.046 1.72-.17l.011-.002c.877-.194 1.69-.838 1.94-1.612zm.543 2.233a.132.132 0 0 1 .09.23c-.043.041-.088.082-.133.12-.135.115-.308-.089-.172-.204.042-.035.083-.071.123-.109a.132.132 0 0 1 .092-.037zm-.834.578c.143-.003.19.19.06.252-.424.217-.876.324-1.308.387-.175.025-.212-.237-.037-.262.415-.06.836-.162 1.225-.361a.132.132 0 0 1 .06-.016Z" color="#000" font-family="sans-serif" font-weight="400" overflow="visible" style="line-height:normal;font-variant-ligatures:normal;font-variant-position:normal;font-variant-caps:normal;font-variant-numeric:normal;font-variant-alternates:normal;font-feature-settings:normal;text-indent:0;text-align:start;text-decoration-line:none;text-decoration-style:solid;text-decoration-color:#000;text-transform:none;text-orientation:mixed;shape-padding:0;isolation:auto;mix-blend-mode:normal" fill="#fff" class="color000 svgShape"/></svg></svg>