<svg xmlns="http://www.w3.org/2000/svg" xmlns:svgjs="http://svgjs.com/svgjs" xmlns:xlink="http://www.w3.org/1999/xlink" width="288" height="288"><svg xmlns="http://www.w3.org/2000/svg" width="288" height="288" fill-rule="evenodd" stroke-linejoin="round" stroke-miterlimit="2" clip-rule="evenodd" viewBox="0 0 616 330"><path fill="#fff" d="M335.65.352h30.53c19.64 0 38.76 2.26 57.1 6.55-5.72 45.42-1.85 87.87 11.99 120.83 2.53 6.09 7.79 9.27 12.95 7.84 5.15-1.43 8.99-7.13 9.44-14.04 1.85-28.81 8.13-61.61 18.67-95.65 82.73 40.72 139.65 125.85 139.65 224.27 0 20.96-8.32 41.06-23.15 55.88a79.029 79.029 0 0 1-55.88 23.15H79.18c-20.96 0-41.06-8.33-55.88-23.15a78.987 78.987 0 0 1-23.15-55.88c0-91.33 49.01-171.21 122.16-214.77-1.28 34.55 3.43 66.39 14.33 92.35 2.53 6.09 7.79 9.27 12.95 7.84 5.15-1.43 8.99-7.13 9.44-14.04 2.14-33.44 10.26-72.24 24.08-112.14 21.28-5.89 43.69-9.04 66.84-9.04h24.9c-6.95 47.89-3.4 92.84 11.11 127.38 2.53 6.09 7.79 9.27 12.94 7.84 5.15-1.43 8.99-7.13 9.44-14.04 2.31-35.96 11.53-78.12 27.31-121.18Z" class="color000 svgShape"/></svg></svg>