<svg xmlns="http://www.w3.org/2000/svg" xmlns:svgjs="http://svgjs.com/svgjs" xmlns:xlink="http://www.w3.org/1999/xlink" width="288" height="288"><svg xmlns="http://www.w3.org/2000/svg" width="288" height="288" data-name="Layer 1" viewBox="0 0 64 64"><path fill="#fff" d="M57.57,29.14a31.19,31.19,0,0,0-12.12-8h-.09l-.09,0s-.07,0-.11,0H45l-.2,0-.15.07-.18.12a.69.69,0,0,0-.11.13,1,1,0,0,0-.12.17s0,.06-.05.09,0,.06,0,.09a.32.32,0,0,1,0,.09c-.17,1-.33,1.87-.47,2.71-.19-1.11-.4-2.34-.64-3.67a.24.24,0,0,0,0-.09.66.66,0,0,0-.06-.2l-.06-.12a1.09,1.09,0,0,0-.13-.17l-.09-.08a.82.82,0,0,0-.2-.12l-.09,0-.07,0a39.81,39.81,0,0,0-8.35-1.31l-.12,0a1.46,1.46,0,0,0-.22,0l-.14.07a.72.72,0,0,0-.19.11l-.12.12-.12.16a1.34,1.34,0,0,0-.07.18.69.69,0,0,0,0,.13c-.34,1.86-.64,3.53-.89,5-.25-1.49-.55-3.16-.89-5,0-.05,0-.09-.05-.14a1.11,1.11,0,0,0-.07-.16,1,1,0,0,0-.15-.2L30.76,19a.76.76,0,0,0-.23-.13l-.11,0a.78.78,0,0,0-.22,0l-.12,0A39.81,39.81,0,0,0,21.73,20l-.07,0-.07,0a.8.8,0,0,0-.22.13l-.06.06a1.46,1.46,0,0,0-.16.19l0,.09a1.72,1.72,0,0,0-.07.21.25.25,0,0,0,0,.07c-.25,1.35-.46,2.59-.65,3.71-.14-.84-.3-1.75-.47-2.71a.32.32,0,0,1,0-.09s0-.06,0-.09,0-.05-.05-.09-.07-.12-.11-.17a.8.8,0,0,0-.13-.13l-.16-.12-.16-.07-.19,0h-.2s-.07,0-.11,0l-.09,0h-.09A31.3,31.3,0,0,0,6.42,29.14,9.48,9.48,0,0,0,4.77,39.47a9.64,9.64,0,0,0,8.91,5.81H50.32a9.64,9.64,0,0,0,8.91-5.81A9.46,9.46,0,0,0,57.57,29.14Zm-.17,9.52a7.66,7.66,0,0,1-7.08,4.62H13.68A7.66,7.66,0,0,1,6.6,38.66a7.52,7.52,0,0,1,1.3-8.18,29.23,29.23,0,0,1,10.23-7.06,71.17,71.17,0,0,1,1.23,9.07,1,1,0,0,0,2,0,86,86,0,0,1,1.51-10.67,36.64,36.64,0,0,1,6.44-1A96.06,96.06,0,0,1,31,32.49a1,1,0,1,0,2,0,96.06,96.06,0,0,1,1.69-11.71,36.64,36.64,0,0,1,6.44,1,86,86,0,0,1,1.51,10.67,1,1,0,0,0,2,0,71.17,71.17,0,0,1,1.23-9.07A29.23,29.23,0,0,1,56.1,30.48,7.52,7.52,0,0,1,57.4,38.66Zm-5.07-.16a.81.81,0,1,1-.81-.81A.81.81,0,0,1,52.33,38.5Zm0-5a.81.81,0,1,1-.81-.81A.81.81,0,0,1,52.33,33.5ZM48.81,36a.81.81,0,1,1-.81-.81A.81.81,0,0,1,48.81,36Z" class="color000 svgShape"/></svg></svg>