<svg xmlns="http://www.w3.org/2000/svg" xmlns:svgjs="http://svgjs.com/svgjs" xmlns:xlink="http://www.w3.org/1999/xlink" width="288" height="288"><svg xmlns="http://www.w3.org/2000/svg" width="288" height="288" enable-background="new 0 0 64 64" viewBox="0 0 64 64"><path fill="#fff" d="M60.217,28.86l-14.552-7.977c-9.658-6.117-21.873-6.515-31.909-1.041l-3.154,1.72		c-1.594,0.869-2.585,2.54-2.585,4.355c0,1.316,0.523,2.578,1.453,3.508c0.37,0.37,0.752,0.726,1.144,1.067l0.032,0.005
		c9.426-3.96,20.269-3.129,29.019,2.412L44.543,36h13.604c2.137,0,3.87-1.733,3.87-3.87C62.016,30.804,61.337,29.57,60.217,28.86z" class="colorf4b2b0 svgShape"/><path fill="#fff" d="M19.259,49H50.13c2.686,0,4.87-2.185,4.87-4.87c0-1.679-0.847-3.217-2.265-4.114L47.974,37H58.13
		c2.686,0,4.87-2.185,4.87-4.87c0-1.679-0.847-3.217-2.319-4.146l-14.497-7.944c-9.959-6.307-22.574-6.718-32.923-1.074l-3.153,1.72
		C8.19,21.73,7,23.735,7,25.918c0,1.593,0.62,3.09,1.746,4.215c0.025,0.025,0.053,0.048,0.078,0.073
		c-0.525,0.251-1.049,0.505-1.564,0.785l-3.153,1.72C2.19,33.756,1,35.762,1,37.945c0,1.592,0.62,3.089,1.746,4.215
		C7.156,46.571,13.021,49,19.259,49z M7.023,43.131c2.77,0.521,5.84,1.102,7.792,1.472C16.204,44.867,17.625,45,19.038,45h16.143
		c1.522,0.109,3.025,0.439,4.466,0.981c0.821,0.31,1.55,0.66,2.191,1.019h-22.58C14.814,47,10.586,45.635,7.023,43.131z M53,44.13
		c0,1.583-1.287,2.87-2.87,2.87h-4.764c-0.797-0.662-1.928-1.466-3.405-2.191c1.692-0.209,3.358-0.588,4.972-1.174l4.907-1.784
		C52.561,42.39,53,43.218,53,44.13z M61,32.13c0,1.583-1.287,2.87-2.87,2.87h-6.617c-1.264-0.965-3.195-2.176-5.16-2.916
		l-0.705,1.871c0.758,0.286,1.51,0.652,2.215,1.045h-3.047l-4.633-2.934c-0.037-0.023-0.075-0.043-0.112-0.066h7.874
		c2.438,0,7.364-0.395,10.203-1.455l1.745-0.652C60.581,30.435,61,31.241,61,32.13z M10.16,28.719
		c-0.531-0.531-0.883-1.19-1.048-1.904c3.598-0.578,7.265-0.875,10.88-0.842l0.016-2c-3.623-0.041-7.256,0.253-10.837,0.81
		c0.295-0.985,0.964-1.835,1.894-2.342l3.153-1.72c9.714-5.298,21.551-4.911,30.95,1.04l12.477,6.838l-0.195,0.073
		C54.994,29.588,50.414,30,47.945,30H36.379c-0.836-0.385-1.689-0.721-2.548-1.031c-1.731-2.345-3.844-4.316-6.302-5.845
		c-2.56-1.591-5.374-2.647-8.366-3.138l-0.324,1.974c2.731,0.448,5.3,1.411,7.634,2.862c1.4,0.87,2.664,1.913,3.813,3.081
		c-6.429-1.519-13.231-1.046-19.464,1.431C10.599,29.131,10.373,28.933,10.16,28.719z M5.064,34.468l3.153-1.72
		c4.555-2.484,9.575-3.718,14.589-3.718c5.677,0,11.344,1.583,16.307,4.726l10.625,6.73l-3.49,1.269
		C43.976,42.581,41.598,43,39.18,43H19.038c-1.288,0-2.584-0.122-3.851-0.361c-2.828-0.536-8.002-1.515-11.209-2.113
		c-0.425-0.49-0.723-1.061-0.867-1.684c3.597-0.577,7.267-0.872,10.88-0.842l0.016-2c-3.624-0.033-7.256,0.255-10.837,0.81
		C3.465,35.825,4.134,34.975,5.064,34.468z" class="colorb3404a svgShape"/><path fill="#fff" d="M26.216 41.621l1.568-1.241c-1.306-1.65-3.645-3.605-6.256-5.229-2.562-1.592-5.376-2.648-8.367-3.138l-.322 1.974c2.729.447 5.297 1.41 7.633 2.862C22.898 38.358 25.046 40.142 26.216 41.621zM37.216 40.621l1.568-1.241c-1.306-1.65-3.645-3.605-6.256-5.229-2.562-1.592-5.376-2.648-8.367-3.138l-.322 1.974c2.729.447 5.297 1.41 7.633 2.862C33.898 37.358 36.046 39.142 37.216 40.621zM41.674 27.919c.183.239.361.473.541.7l1.57-1.238c-.173-.22-.346-.446-.522-.676-1.117-1.462-2.385-3.119-4.734-4.581-2.56-1.591-5.374-2.647-8.366-3.138l-.324 1.974c2.731.448 5.3 1.411 7.634 2.862C39.512 25.091 40.611 26.528 41.674 27.919z" class="colorb3404a svgShape"/><rect width="2" height="2" x="30" y="39" fill="#fff" class="colorb3404a svgShape"/><rect width="2" height="2" x="46" y="25" fill="#fff" class="colorb3404a svgShape"/><rect width="2" height="2" x="34" y="25" fill="#fff" class="colorb3404a svgShape"/><rect width="2" height="2" x="16" y="38" fill="#fff" class="colorb3404a svgShape"/><rect width="2" height="2" x="40" y="36" fill="#fff" class="colorb3404a svgShape"/></svg></svg>