<svg xmlns="http://www.w3.org/2000/svg" xmlns:svgjs="http://svgjs.com/svgjs" xmlns:xlink="http://www.w3.org/1999/xlink" width="288" height="288"><svg xmlns="http://www.w3.org/2000/svg" width="288" height="288" data-name="Layer 1" viewBox="0 0 48 48"><path fill="#fff" d="M23.241,43.883a1,1,0,0,0,1.4.012l5.56-5.361A4.536,4.536,0,0,0,24.244,31.8l-.2.137-.2-.14a4.533,4.533,0,0,0-6,6.7ZM19.47,33.732a2.536,2.536,0,0,1,3.228-.288l.762.528a1,1,0,0,0,1.125.009l.769-.514a2.539,2.539,0,0,1,3.225.342,2.509,2.509,0,0,1,.17,3.352l-4.791,4.613-4.65-4.623A2.522,2.522,0,0,1,19.47,33.732Z" class="color000 svgShape"/><path fill="#fff" d="M41.706,24.876l-5.644-6.884V.938a1,1,0,0,0-1-1h-24a1,1,0,0,0-1,1V20.5c-.145.073-.29.134-.436.225a5.01,5.01,0,0,0-2.009,2.929A3.907,3.907,0,0,0,8.211,26.7a7.129,7.129,0,0,0,1.851,1.931V47a1,1,0,0,0,1,1h24a1,1,0,0,0,1-1V27.2l5.009-.7a1,1,0,0,0,.635-1.624ZM12.062,1.938h10V7.313H13.953a1,1,0,1,0,0,2h8.109V14.08H13.953a1,1,0,0,0,0,2h8.109v1.934a14.012,14.012,0,0,0-2.348.834c-.413.192-.816.406-1.216.62a8.054,8.054,0,0,1-2.859,1.1h0a4.851,4.851,0,0,1-.773-.189,8.245,8.245,0,0,0-2.8-.42ZM9.57,24.084a3.07,3.07,0,0,1,1.109-1.66A4.127,4.127,0,0,1,14.3,22.3a3.971,3.971,0,0,0,1.537.259,9.67,9.67,0,0,0,3.6-1.326c.368-.2.737-.393,1.116-.569a16.041,16.041,0,0,1,7.255-1.224.986.986,0,0,0,1.042-.956A1,1,0,0,0,27.9,17.44a21.16,21.16,0,0,0-3.834.171V1.938h10V7.313H25.953a1,1,0,1,0,0,2h8.109V14.08H25.953a1,1,0,0,0,0,2h8.109v1.6l-22.9,9.289A5.175,5.175,0,0,1,9.881,25.6,1.9,1.9,0,0,1,9.57,24.084Zm6.569,3.889a1,1,0,0,0,.137,1.99.951.951,0,0,0,.14-.01l17.646-2.471V46h-22V28.76l22.694-9.207,4.274,5.214Z" class="color000 svgShape"/></svg></svg>