<svg xmlns="http://www.w3.org/2000/svg" xmlns:svgjs="http://svgjs.com/svgjs" xmlns:xlink="http://www.w3.org/1999/xlink" width="288" height="288"><svg xmlns="http://www.w3.org/2000/svg" width="288" height="288" viewBox="0 0 32 32"><path fill="#fff" d="M30 21.61a1 1 0 0 0-.7-.71l-5.44-1.51a6.46 6.46 0 0 0-.25-1.94 18.73 18.73 0 0 0-1-2.62 5.28 5.28 0 0 0 1-3.09 5.34 5.34 0 0 0-7.37-5C12.33 3.65 7.6 2.06 3.42 2.55a1 1 0 0 0-.87.87c-.5 4.16 1.1 8.9 4.22 12.84a5.33 5.33 0 0 0 8.05 6.35 18.72 18.72 0 0 0 2.62 1 6.6 6.6 0 0 0 1.79.26h.15l1.51 5.44a1 1 0 0 0 .71.7 1 1 0 0 0 .25 0 1 1 0 0 0 .71-.29l7.14-7.14a1 1 0 0 0 .3-.97ZM18.27 8.37a3.36 3.36 0 0 1 3.36 3.36 3.33 3.33 0 0 1-.15.93 22.29 22.29 0 0 0-3.3-4.19l-.09-.08Zm-6.06-1.9a14.61 14.61 0 0 1-5.74 5.74 15 15 0 0 1-2-7.74 15.15 15.15 0 0 1 7.74 2Zm-.48 15.16a3.36 3.36 0 0 1-3.36-3.36v-.18l.08.09a22.3 22.3 0 0 0 4.19 3.3 3.32 3.32 0 0 1-.91.15Zm6.26 0a16.91 16.91 0 0 1-2.88-1.12 19.79 19.79 0 0 1-5.21-3.77 20.45 20.45 0 0 1-2.38-2.85 16.62 16.62 0 0 0 6.41-6.4 20.36 20.36 0 0 1 2.85 2.37 19.8 19.8 0 0 1 3.77 5.21A16.93 16.93 0 0 1 21.66 18a3.14 3.14 0 0 1-.53 3.15 3.13 3.13 0 0 1-3.13.51Zm4.38 5.42-1-3.71a4 4 0 0 0 2.05-2l3.7 1ZM8 7a.83.83 0 0 1 .08-.38 1.15 1.15 0 0 1 .21-.33 1 1 0 0 1 1.42 0 1.15 1.15 0 0 1 .21.33.94.94 0 0 1 0 .76 1.15 1.15 0 0 1-.21.33 1 1 0 0 1-1.42 0 1.15 1.15 0 0 1-.21-.33A.83.83 0 0 1 8 7Z" class="color000 svgShape"/></svg></svg>