<svg xmlns="http://www.w3.org/2000/svg" xmlns:svgjs="http://svgjs.com/svgjs" xmlns:xlink="http://www.w3.org/1999/xlink" width="288" height="288"><svg xmlns="http://www.w3.org/2000/svg" width="288" height="288" viewBox="0 0 406.987 406.987"><path fill="#fff" d="M315.633 0h-79.792l-22.153 37.341V198.587c-4.026-12.887-16.073-22.266-30.269-22.266H136.25v5c0 8.391 3.283 16.026 8.625 21.703h-9.598c-16.809 0-30.597 13.151-31.633 29.703h-.07v5c0 8.391 3.283 16.026 8.625 21.703h-4.415c-15.78 0-28.9 11.59-31.305 26.703h-2.278a5 5 0 0 0-5 5c0 42.202 34.333 76.535 76.535 76.535h14.903v12.568h-12.975c-9.833 0-17.75 11.899-17.75 21.751v5h71.451v-5c0-9.852-7.918-21.751-17.751-21.751H170.64v-12.568h14.903a76.109 76.109 0 0 0 28.145-5.385v44.704h124.098V37.341L315.633 0zM190.258 396.987h-49.237c1.511-3.629 4.301-6.751 6.644-6.751h35.949c2.344 0 5.133 3.122 6.644 6.751zm64.94-132.557v-5h-.398c-2.395-15.051-15.419-26.603-31.112-26.698v-22.198l104.098-45.618v77.852l-74.564 32.675a31.543 31.543 0 0 0 1.976-11.013zm-41.51-46.682v14.979h-8.33c3.875-4.257 6.738-9.502 8.33-14.979zm-66.857-31.427h36.588c10.246 0 18.851 7.139 21.115 16.703h-36.582c-10.246 0-18.857-7.138-21.121-16.703zm-11.554 26.703h69.315c-2.108 10.096-10.288 19.703-20.732 19.703h-70.19c1.013-11.032 10.314-19.703 21.607-19.703zm-21.122 29.703h109.34c10.246 0 18.85 7.139 21.115 16.703H135.277c-10.247 0-18.858-7.138-21.122-16.703zm-6.371 26.703h136.833c-2.264 9.565-10.875 16.703-21.122 16.703H86.663c2.263-9.565 10.875-16.703 21.121-16.703zm37.953 88.238c-35.006 0-63.785-27.174-66.349-61.535h172.504c-2.564 34.361-31.343 61.535-66.349 61.535h-39.806zm182.049 39.319H223.688v-39.545c22.92-13.237 38.39-37.992 38.39-66.309a5 5 0 0 0-5-5h-3.336l74.043-32.447v143.301zm0-242.989-104.098 45.617v-66.652h104.098v21.035zm0-31.035H223.688v-12.05H327.785v12.05zm-68.459-22.049h-12.819V48.515a4.807 4.807 0 0 1 4.802-4.802h3.215a4.807 4.807 0 0 1 4.802 4.802v52.399zm45.639 0h-12.82V48.515a4.807 4.807 0 0 1 4.803-4.802h3.215a4.807 4.807 0 0 1 4.802 4.802v52.399zm10 0V48.515c0-8.162-6.64-14.802-14.802-14.802h-3.215c-8.162 0-14.803 6.64-14.803 14.802v52.399h-12.819V48.515c0-8.162-6.64-14.802-14.802-14.802h-3.215c-8.162 0-14.802 6.64-14.802 14.802v52.399h-12.82v-60.83L241.536 10h68.402l17.848 30.084v60.83h-12.82z" class="color000 svgShape"/><path fill="#fff" d="M153.754 339.668h10.726v10h-10.726zM242.784 303.771l-9.642-2.655-.796 2.892c-5.784 20.996-25.03 35.66-46.803 35.66h-12.857v10h12.857c26.259 0 49.47-17.684 56.444-43.004l.797-2.893z" class="color000 svgShape"/></svg></svg>