<svg xmlns="http://www.w3.org/2000/svg" xmlns:svgjs="http://svgjs.com/svgjs" xmlns:xlink="http://www.w3.org/1999/xlink" width="288" height="288"><svg xmlns="http://www.w3.org/2000/svg" width="288" height="288" data-name="Layer 1" viewBox="0 0 1000 1000"><path fill="#fff" d="M556.05,616.89c-30,0-54.43-22.41-57.42-25.27a16,16,0,0,1-3.13-19c2.23-4.26,22.81-41.85,57.16-48.86,35.07-7.15,65.68,20.88,69.05,24.1a16,16,0,0,1,3.13,19c-2.24,4.27-22.82,41.86-57.16,48.87h0A58.35,58.35,0,0,1,556.05,616.89Zm8.43-16.84h0Zm-33.3-23.73c8.4,5.23,19.84,10.15,30.1,8h0c11-2.24,21.15-12.43,27.88-21.2-8.41-5.24-19.85-10.15-30.11-8.06C548,557.36,537.9,567.55,531.18,576.32Z" class="color000 svgShape"/><path fill="#fff" d="M610.67 575.44a16 16 0 01-11.58-5c-3.22-3.37-31.26-34-24.1-69.05 7-34.34 44.6-54.92 48.86-57.16a16 16 0 0119 3.13c3.22 3.37 31.26 34 24.1 69.05-7 34.35-44.6 54.93-48.86 57.16A16 16 0 01610.67 575.44zm16.87-95.5c-8.82 6.75-18.95 16.85-21.2 27.89-2.09 10.26 2.86 21.74 8.06 30.11 8.82-6.75 19-16.85 21.2-27.88C637.69 499.8 632.74 488.31 627.54 479.94zM466.92 527.76c-30 0-54.43-22.41-57.43-25.27a16 16 0 01-3.12-19c2.23-4.26 22.81-41.85 57.15-48.86 35.08-7.16 65.68 20.88 69.06 24.1a16 16 0 013.12 19c-2.23 4.26-22.81 41.85-57.15 48.86h0A57.79 57.79 0 01466.92 527.76zm8.43-16.84h0zM442 487.19c8.41 5.23 19.85 10.14 30.11 8.05h0C483.16 493 493.3 482.81 500 474c-8.41-5.23-19.85-10.14-30.11-8C458.91 468.23 448.77 478.41 442 487.19z" class="color000 svgShape"/><path fill="#fff" d="M521.54 486.31a16 16 0 01-11.58-5c-3.23-3.37-31.26-34-24.11-69.05 7-34.35 44.6-54.93 48.87-57.16a16 16 0 0119 3.13c3.22 3.37 31.26 34 24.1 69.05h0c-7 34.34-44.6 54.92-48.86 57.16A16 16 0 01521.54 486.31zm16.87-95.5c-8.83 6.75-18.95 16.85-21.2 27.89-2.1 10.26 2.85 21.74 8 30.11 8.83-6.75 19-16.85 21.2-27.89h0C548.56 410.66 543.61 399.18 538.41 390.81zm23.73 33.31h0zM645.18 706c-30 0-54.43-22.41-57.42-25.27a16 16 0 01-3.13-19c2.24-4.27 22.82-41.86 57.16-48.87 35.07-7.15 65.68 20.89 69.05 24.11A16 16 0 01714 656c-2.23 4.26-22.81 41.85-57.16 48.86h0A58.35 58.35 0 01645.18 706zm8.43-16.84h0zm-33.3-23.73c8.41 5.23 19.84 10.15 30.11 8h0c11-2.24 21.15-12.43 27.87-21.2-8.4-5.23-19.84-10.15-30.1-8C637.18 646.49 627 656.68 620.31 665.45z" class="color000 svgShape"/><path fill="#fff" d="M699.8,664.57a16,16,0,0,1-11.58-5c-3.22-3.38-31.26-34-24.1-69.06,7-34.34,44.6-54.92,48.86-57.15a16,16,0,0,1,19,3.12c3.22,3.38,31.26,34,24.1,69.06h0c-7,34.34-44.6,54.92-48.86,57.15A16,16,0,0,1,699.8,664.57Zm16.87-95.49c-8.82,6.74-18.94,16.84-21.2,27.88-2.09,10.26,2.86,21.74,8.06,30.12,8.82-6.75,19-16.85,21.2-27.89h0C726.83,588.93,721.87,577.45,716.67,569.08Z" class="color000 svgShape"/><path fill="#fff" d="M780.82 745.6a15.94 15.94 0 01-11.31-4.69L458.1 429.5a16 16 0 0122.63-22.62L792.14 718.29a16 16 0 01-11.32 27.31zM348.41 736.39c-31 0-56.74-24.2-58-25.35a16 16 0 01-3.13-19c2.25-4.29 22.92-42 57.42-49.09 35.82-7.32 68 22.92 69.36 24.21a16 16 0 013.13 19c-2.25 4.28-22.92 42.05-57.42 49.09h0A56.75 56.75 0 01348.41 736.39zm8.21-16.81h0zM323 695.73C331.47 701 343 706 353.42 703.9h0c11.13-2.27 21.37-12.59 28.15-21.44-8.48-5.29-20-10.28-30.42-8.16C340 676.58 329.79 686.82 323 695.73z" class="color000 svgShape"/><path fill="#fff" d="M403.07 694.74a16 16 0 01-11.58-5c-1.29-1.35-31.53-33.53-24.22-69.36 7-34.49 44.81-55.17 49.09-57.42a16 16 0 0119 3.13c1.29 1.35 31.53 33.54 24.22 69.36-7 34.5-44.81 55.17-49.09 57.42A16 16 0 01403.07 694.74zm17-96.08c-8.91 6.8-19.16 17-21.43 28.16-2.12 10.38 2.91 22 8.16 30.43 8.91-6.8 19.16-17 21.44-28.16h0C430.34 618.72 425.31 607.11 420.06 598.66zM258.78 646.76c-31 0-56.75-24.21-58-25.36a16 16 0 01-3.12-19c2.24-4.28 22.92-42 57.41-49.09 35.83-7.31 68 22.93 69.37 24.22a16 16 0 013.12 19c-2.24 4.28-22.92 42.05-57.41 49.09A56.75 56.75 0 01258.78 646.76zM233.37 606.1c8.47 5.29 20 10.28 30.42 8.16 11.13-2.27 21.37-12.58 28.15-21.43-8.48-5.29-20.05-10.28-30.43-8.16C250.38 586.94 240.14 597.25 233.37 606.1z" class="color000 svgShape"/><path fill="#fff" d="M313.44 605.1a16 16 0 01-11.59-5c-1.29-1.35-31.52-33.53-24.21-69.36 7-34.5 44.81-55.17 49.09-57.42a16 16 0 0119 3.13C347 477.85 377.26 510 370 545.86h0c-7 34.49-44.81 55.17-49.1 57.42A15.91 15.91 0 01313.44 605.1zm17-96.07c-8.9 6.8-19.15 17-21.43 28.16-2.11 10.37 2.87 21.94 8.17 30.42 8.91-6.79 19.16-17 21.43-28.15C340.71 529.09 335.72 517.52 330.42 509zm23.85 33.63h0zM438.05 826c-31 0-56.75-24.2-58-25.35a16 16 0 01-3.12-19c2.24-4.28 22.92-42 57.41-49.09 35.83-7.32 68 22.92 69.36 24.21a16 16 0 013.13 19c-2.24 4.29-22.92 42.06-57.42 49.09h0A56.65 56.65 0 01438.05 826zm-25.42-40.65c8.48 5.29 20.05 10.28 30.42 8.16h0c11.15-2.27 21.35-12.52 28.15-21.43-8.48-5.29-20-10.28-30.43-8.17C429.65 766.2 419.41 776.52 412.63 785.37z" class="color000 svgShape"/><path fill="#fff" d="M492.7,784.37a16,16,0,0,1-11.58-5c-1.29-1.36-31.53-33.54-24.21-69.37,7-34.49,44.8-55.17,49.09-57.41a16,16,0,0,1,19,3.12c1.29,1.36,31.52,33.54,24.21,69.37h0c-7,34.49-44.81,55.17-49.09,57.41A16,16,0,0,1,492.7,784.37Zm17-96.07c-8.91,6.8-19.15,17-21.43,28.15-2.12,10.38,2.87,21.94,8.17,30.43,8.91-6.8,19.15-17,21.43-28.15h0C520,708.35,515,696.79,509.69,688.3Z" class="color000 svgShape"/><path fill="#fff" d="M574.18,865.85a16,16,0,0,1-11.32-4.68L249.71,548a16,16,0,1,1,22.63-22.63L585.49,838.54a16,16,0,0,1-11.31,27.31Z" class="color000 svgShape"/><path fill="#fff" d="M743.18 916H256.82c-64.74 0-117.42-45.52-117.42-101.48V411.67a16 16 0 0132 0V814.52c0 38.31 38.32 69.48 85.42 69.48H743.18c47.1 0 85.42-31.17 85.42-69.48V411.67a16 16 0 1132 0V814.52C860.6 870.48 807.92 916 743.18 916zM827.63 335.16H172.37a16 16 0 010-32H827.63a16 16 0 010 32z" class="color000 svgShape"/><path fill="#fff" d="M844.6,427.67a16,16,0,0,1-16-16c0-30.59-5.47-60.54-15.83-86.6-17.59-44.23-47.66-73.78-80.44-79a16,16,0,0,1-12.54-10.45c-19-53.76-55.06-87.16-94-87.16a72.36,72.36,0,0,0-35.3,9.47,16,16,0,0,1-20.32-4.1C551,129.42,527,116,502.63,116H502a16,16,0,1,1-.83-32h1.45c30.72,0,60.25,14.16,84.28,40.15a101.89,101.89,0,0,1,38.86-7.74c50.63,0,96.39,38.07,121,100,19.08,5,37.32,15.57,53.25,31,17.39,16.89,32.09,39.65,42.49,65.82,11.84,29.79,18.1,63.82,18.1,98.42A16,16,0,0,1,844.6,427.67Z" class="color000 svgShape"/><path fill="#fff" d="M155.4 427.67a16 16 0 01-16-16c0-34.6 6.26-68.63 18.1-98.42 10.4-26.17 25.1-48.93 42.49-65.82 15.93-15.47 34.17-26.08 53.25-31 24.6-61.91 70.36-100 121-100a101.89 101.89 0 0138.86 7.74c24-26 53.56-40.15 84.28-40.15h1.45a16 16 0 01-.83 32h-.62C473 116 449 129.42 429.85 153.78a16 16 0 01-20.32 4.1 72.36 72.36 0 00-35.3-9.47c-39 0-75 33.4-94 87.16A16 16 0 01267.67 246c-32.78 5.27-62.85 34.82-80.44 79.06-10.35 26.05-15.83 56-15.83 86.59A16 16 0 01155.4 427.67zM628.21 212.34H613.38a16 16 0 010-32h14.83a16 16 0 010 32zM545.93 212.34H531.09a16 16 0 010-32h14.84a16 16 0 010 32zM463.64 212.34H448.81a16 16 0 010-32h14.83a16 16 0 010 32z" class="color000 svgShape"/><path fill="#fff" d="M381.36 212.34H366.52a16 16 0 010-32h14.84a16 16 0 010 32zM668 276.82H648.67a16 16 0 010-32H668a16 16 0 010 32zM560.71 276.82H541.35a16 16 0 010-32h19.36a16 16 0 010 32zM453.38 276.82H434a16 16 0 010-32h19.35a16 16 0 010 32zM346.06 276.82H326.71a16 16 0 010-32h19.35a16 16 0 010 32z" class="color000 svgShape"/></svg></svg>