<svg xmlns="http://www.w3.org/2000/svg" xmlns:svgjs="http://svgjs.com/svgjs" xmlns:xlink="http://www.w3.org/1999/xlink" width="288" height="288"><svg xmlns="http://www.w3.org/2000/svg" width="288" height="288" viewBox="0 0 16.933 16.933"><path d="M42.652 4.002a1 1 0 0 0-.87.531L28.796 28.885 8.504 47.555c-.906.832-1.443 2.343-1.055 4.029l-2.695.717c-1.314.33-.786 2.303.517 1.933l2.985-.795c.115.18.243.359.383.538a1 1 0 0 0-.172.14l-2.444 2.451c-1.11.937.476 2.52 1.41 1.409l2.452-2.45a1 1 0 0 0 .136-.17c.18.142.36.27.541.387l-.796 2.986c-.344 1.29 1.591 1.806 1.935.516l.719-2.7c1.681.383 3.187-.156 4.02-1.042a1 1 0 0 0 .029-.03l21.082-24.32 21.83-8.89a1 1 0 0 0 .324-1.639l-3.264-3.264a1 1 0 0 0-.722-.295.998.998 0 0 0-.244.038l-4.948 1.302 2.674-2.933a1 1 0 0 0-.03-1.381l-3.263-3.262a1 1 0 0 0-.722-.297 1 1 0 0 0-.672.274l-4.106 3.853 2.451-6.015a1 1 0 0 0-.22-1.086l-3.27-3.262a1 1 0 0 0-.717-.295Zm.258 2.656 1.846 1.846c-2.896 7.101-5.78 14.18-8.674 21.281L14.984 54.14h-.006c-.456.482-2.123 1.31-4.275-.842-2.156-2.157-1.319-3.843-.848-4.274l20.418-18.787a1 1 0 0 0 .207-.265zm6.268 6.268 1.904 1.904-4.03 4.422a1 1 0 0 0-.08.088l-5.007 1.318.635-1.556zm6.252 6.252 1.802 1.8-18.46 7.52 2.25-5.525z" color="#000" font-family="sans-serif" font-weight="400" overflow="visible" transform="scale(.26458)" style="line-height:normal;font-variant-ligatures:normal;font-variant-position:normal;font-variant-caps:normal;font-variant-numeric:normal;font-variant-alternates:normal;font-feature-settings:normal;text-indent:0;text-align:start;text-decoration-line:none;text-decoration-style:solid;text-decoration-color:#000;text-transform:none;text-orientation:mixed;shape-padding:0;isolation:auto;mix-blend-mode:normal" fill="#fff" class="color000 svgShape"/></svg></svg>