<svg xmlns="http://www.w3.org/2000/svg" xmlns:svgjs="http://svgjs.com/svgjs" xmlns:xlink="http://www.w3.org/1999/xlink" width="288" height="288"><svg xmlns="http://www.w3.org/2000/svg" width="288" height="288" enable-background="new 0 0 66 66" viewBox="0 0 66 66"><path fill="#fff" d="M37.3884,41.0112c0.0734,0.0174,0.1477,0.0257,0.2201,0.0257c0.4237,0,0.8089-0.2889,0.9125-0.7199
		c0.9017-3.7591,1.3078-7.6045,2.0066-11.3308c0.8731-4.6653,3.8601-7.8678,7.9898-8.5657c1.3399-0.2313,2.8463,0.0748,4.4342,0.133
		c0.5081,0.0248,0.9538-0.3852,0.973-0.9033c0.0193-0.5191-0.3852-0.9547-0.9033-0.973c-1.5829-0.0589-3.1749-0.3871-4.8175-0.1091
		c-4.9386,0.8355-8.4988,4.6011-9.5232,10.0734c-0.6913,3.694-1.113,7.599-1.9864,11.2372
		C36.5731,40.383,36.884,40.8901,37.3884,41.0112z" class="color000 svgShape"/><path fill="#fff" d="M2.756,56.8688c14.0715,9.1611,34.4663,8.5999,45.6541-4.4333c8.4336-9.824,13.2823-17.4937,14.4122-22.7954
		c0.7796-3.6621,0.2135-7.0769-1.5951-9.9561c0.0104-0.032,0.0272-0.061,0.0342-0.0944c0.5457-2.6192-0.2082-4.7753-2.3038-6.5921
		c-0.3714-0.3219-0.3751-0.3448-0.1229-0.8061c1.1326-2.0726,2.7476-3.7317,4.9367-5.0706c1.195-0.7309,1.2739-1.6453,1.2142-2.1258
		c-0.2462-1.9694-2.6412-2.6502-4.226-1.5517c-2.5844,1.7865-4.6029,3.9665-5.9987,6.4793
		c-0.3334,0.5992-0.5123,0.6852-1.1913,0.5915c-2.7265-0.3641-4.7863,0.4897-6.4362,2.6422
		c-0.0099,0.0129-0.0142,0.0283-0.0234,0.0415c-0.8161,0.1153-1.6308,0.2948-2.4354,0.55
		c-7.2984,2.3187-9.5917,7.8176-10.4292,14.3709c-0.5594,4.3773-1.2555,9.8249-5.9483,17.3699
		c-5.0131,8.0618-14.6486,9.2717-24.0601,8.0136c-0.4556-0.0609-2.5718-0.3079-2.9558,0.5246l-0.2229,0.4815
		C0.6562,55.3829,2.4497,56.6686,2.756,56.8688z M56.4027,10.8341c1.2546-2.2579,3.0796-4.2251,5.4246-5.8465
		c0.3875-0.2664,1.2844-0.2762,1.2949,0.2366c-0.0083,0.0284-0.0862,0.1449-0.3302,0.2944c-2.478,1.515-4.3113,3.4034-5.6062,5.7722
		c-1.5853,2.9058,1.6323,2.8381,2.2735,5.7979c-2.6183-2.4587-5.6842-3.8472-9.2865-4.2076
		C52.8743,11.3067,54.73,13.8471,56.4027,10.8341z M29.893,46.4808c4.9083-7.8935,5.664-13.8069,6.2161-18.1246
		c0.697-5.4607,2.3191-10.653,9.1343-12.8183c8.4869-2.6952,17.805,4.0249,15.7411,13.7115
		c-0.7309,3.4309-3.7528,10.0257-13.9995,21.9627C36.5386,63.3807,17.3015,64.0523,3.8657,55.35
		C14.3725,56.284,24.1512,55.7122,29.893,46.4808z" class="color000 svgShape"/></svg></svg>