<svg xmlns="http://www.w3.org/2000/svg" xmlns:svgjs="http://svgjs.com/svgjs" xmlns:xlink="http://www.w3.org/1999/xlink" width="288" height="288"><svg xmlns="http://www.w3.org/2000/svg" width="288" height="288" enable-background="new" viewBox="0 0 64 64"><path fill-rule="evenodd" d="m4.4422 4.1772c-0.45869 0.30829-0.58028 0.93017-0.27148 1.3885l12.427 18.439h-1.5976c-1.6447 0-2.9999 1.3551-2.9999 2.9996v25.997c0 3.8536 3.1458 6.9991 6.9998 6.9991h25.999c3.854 0 6.9998-3.1454 6.9998-6.9991v-25.997c0-1.6445-1.3553-2.9996-2.9999-2.9996h-1.5976l12.427-18.439c0.3088-0.45832 0.18721-1.0802-0.27148-1.3885-0.541-0.32118-1.0757-0.14005-1.3886 0.27145l-13.181 19.556h-4.3827l11.248-18.478c0.28645-0.4714 0.13701-1.0857-0.33398-1.3729-0.59916-0.32342-1.1065-0.070417-1.373 0.33394l-11.881 19.517h-3.8554l10.461-18.505c0.27213-0.48099 0.10243-1.0915-0.3789-1.3631-0.57718-0.29404-1.1288-0.026489-1.3632 0.37886l-11.129 19.49-11.129-19.49c-0.32875-0.52265-0.87679-0.63023-1.3632-0.37886-0.48133 0.2716-0.65103 0.88211-0.3789 1.3631l10.461 18.505h-3.8554l-11.881-19.517c-0.36356-0.54566-0.92606-0.58553-1.373-0.33394-0.47098 0.28717-0.62042 0.90147-0.33398 1.3729l11.25 18.478h-4.3866l-13.179-19.556c-0.40877-0.53204-0.95113-0.54789-1.3886-0.27145zm10.558 21.827h2.9452l7.0896 10.52-7.906 13.985c-0.27213 0.48099-0.10243 1.0915 0.3789 1.3631 0.48104 0.2721 1.0916 0.10242 1.3632-0.37886l7.4138-13.115 1.6972 2.5173-5.8358 9.5866c-0.28645 0.4714-0.13701 1.0857 0.33398 1.3729 0.47144 0.28642 1.0858 0.137 1.373-0.33394l5.3573-8.8016 1.582 2.3474-3.6229 5.3763c-0.3088 0.45832-0.18721 1.0802 0.27148 1.3885 0.45836 0.30877 1.0803 0.1872 1.3886-0.27145l3.1698-4.7025 3.1698 4.7025c0.30832 0.45864 0.93027 0.58022 1.3886 0.27145 0.45869-0.30829 0.58028-0.93017 0.27148-1.3885l-3.6229-5.3763 1.582-2.3474 5.3573 8.8016c0.2872 0.47094 0.90156 0.62036 1.373 0.33394 0.47098-0.28717 0.62042-0.90147 0.33398-1.3729l-5.8358-9.5866 1.6972-2.5173 7.4138 13.115c0.27163 0.48128 0.8822 0.65096 1.3632 0.37886 0.48133-0.2716 0.65103-0.88211 0.3789-1.3631l-7.906-13.986 7.0896-10.518h2.9452c0.57128 0 0.99997 0.42865 0.99997 0.99987v21.997c0 2.7729-2.2267 4.9994-4.9998 4.9994h-25.999c-2.7732 0-4.9999-2.2264-4.9999-4.9994v-21.997c0-0.57122 0.42869-0.99987 0.99997-0.99987zm5.3592 0h4.2538l3.3026 5.4251-1.7792 3.148zm6.5936 0h4.0468l-1.9589 3.4312zm10.093 0-2.0878 3.4312-1.9589-3.4312zm2.3417 0h4.2518l-5.7772 8.5712-1.7773-3.1461zm-7.3885 2.2634 1.7675 3.1265-1.7675 2.902-1.7675-2.902zm-2.8925 5.1185 1.7226 2.8317-1.7031 2.7965-1.7402-2.5836zm5.785 0 1.7207 3.0445-1.7402 2.5836-1.7031-2.7985zm-2.8925 4.7513 1.6425 2.7008-1.6425 2.4372-1.6445-2.4372zm-17.902 15.848c1.2648 1.2441 2.996 2.0154 4.9022 2.0154h25.999c1.9062 0 3.6374-0.77128 4.9022-2.0154-0.45377 2.2973-2.4662 4.0151-4.9022 4.0151h-25.999c-2.436 0-4.4484-1.7178-4.9022-4.0151z" color="#000" enable-background="accumulate" style="font-feature-settings:normal;font-variant-alternates:normal;font-variant-caps:normal;font-variant-east-asian:normal;font-variant-ligatures:normal;font-variant-numeric:normal;font-variant-position:normal;font-variation-settings:normal;inline-size:0;isolation:auto;mix-blend-mode:normal;shape-margin:0;shape-padding:0;text-decoration-color:#000;text-decoration-line:none;text-decoration-style:solid;text-indent:0;text-orientation:mixed;text-transform:none;white-space:normal" fill="#fff" class="color000 svgShape"/></svg></svg>