<svg xmlns="http://www.w3.org/2000/svg" xmlns:svgjs="http://svgjs.com/svgjs" xmlns:xlink="http://www.w3.org/1999/xlink" width="288" height="288"><svg xmlns="http://www.w3.org/2000/svg" width="288" height="288" viewBox="0 0 64 64"><path fill="#fff" d="M43.01 47.42c-2.74 0-5.4-.44-7.91-1.3a1.884 1.884 0 0 1-1.17-2.39c.34-.98 1.41-1.51 2.39-1.17 2.11.73 4.37 1.09 6.69 1.09 9.22 0 16.61-6.02 17.2-14.01.33-4.58-2.38-8.12-8.29-10.82-1.69-.78-3.64-1.47-5.8-2.06-1-.27-1.59-1.31-1.32-2.31.28-1 1.31-1.59 2.31-1.32 2.35.65 4.49 1.41 6.37 2.27 9.22 4.22 10.78 10.22 10.48 14.51-.73 9.99-9.74 17.51-20.95 17.51zM26.52 22.64c-1.04 0-1.89-.84-1.89-1.88 0-.48.18-.92.48-1.26 1.94-2.48 4.86-4.28 8.69-5.34 1-.27 2.04.31 2.32 1.31.28 1-.31 2.04-1.31 2.32-3.12.86-5.34 2.21-6.79 4.11-.36.46-.91.74-1.5.74z" class="color000 svgShape"/><path fill="#fff" d="M35.94 29.05c-.81 0-1.56-.51-1.81-1.32-.03-.11-.15-.51-.21-1.16-.16-1.52-.01-4.34 2.22-7.8-2.15-.67-3.67-1.66-4.53-2.95-1.01-1.52-.75-2.89-.68-3.15.1-.39.32-.75.63-1 .16-.13 3.75-2.98 9.92-.48 3.34-3.83 6.04-4.45 6.36-4.51.22-.04.45-.05.68-.01.88.15 2.08.81 2.56 2.17.49 1.37.12 2.98-1.16 4.94 1.42.44 2.7 1.03 3.82 1.76 2.54 1.65 3.41 3.49 3.5 3.69.2.46.22.98.03 1.45-.18.47-.55.84-1.01 1.04-.22.1-5.14 2.13-11.34-.25-2.7 4.87-6.74 6.83-8.02 7.35-.28.11-.42.15-.42.15-.19.06-.37.08-.54.08zm-.87-14.95c.62.53 1.95 1.2 4.62 1.61.68.1 1.25.57 1.49 1.22s.1 1.37-.36 1.89c-1.79 2.04-2.6 3.81-2.95 5.14 1.46-1.08 3.22-2.87 4.41-5.68.2-.48.6-.85 1.09-1.03a1.87 1.87 0 0 1 1.5.09c2.75 1.4 5.24 1.62 7.03 1.51-.07-.05-.15-.1-.22-.15-1.41-.92-3.21-1.56-5.34-1.88-.68-.1-1.25-.57-1.48-1.22-.24-.65-.1-1.37.36-1.89 1.02-1.16 1.59-2.01 1.91-2.59-.91.61-2.18 1.68-3.62 3.54-.55.72-1.54.94-2.34.53-2.9-1.48-4.94-1.39-6.1-1.09z" class="color000 svgShape"/><path fill="#fff" d="M17.6 57.36c-4.34 0-8.44-1.49-11.5-4.54C.22 46.94-.68 40.61 3.35 33.47c.51-.9 1.66-1.22 2.57-.71.91.51 1.22 1.66.71 2.57-3.22 5.69-2.58 10.12 2.13 14.83 5.41 5.4 15.26 4.35 21.96-2.35 1.35-1.35 2.47-2.82 3.34-4.38 2.87-5.09 3.05-10.86.48-15.43-.13-.24-.23-.42-.35-.61-.37-.59-.78-1.14-1.22-1.65-1.7-1.98-3.84-3-6.54-3.11-2.04-.08-4.37.36-6.94 1.31-1.74.64-3.62 1.52-5.6 2.65-.9.51-2.05.2-2.57-.7-.51-.9-.2-2.05.7-2.57 2.16-1.23 4.23-2.21 6.16-2.91 3.03-1.13 5.84-1.66 8.39-1.54 3.75.16 6.86 1.64 9.24 4.42.55.64 1.07 1.35 1.55 2.09.17.28.33.55.48.83 3.18 5.67 3 12.81-.51 19.05-1.03 1.86-2.37 3.61-3.96 5.21-4.53 4.55-10.33 6.89-15.77 6.89z" class="color000 svgShape"/><path fill="#fff" d="M14.06 43.06c-.29 0-.58-.07-.85-.2-.17-.09-3.66-1.92-4.94-7.78-2 1.05-3.77 1.43-5.29 1.12-1.79-.36-2.57-1.52-2.71-1.75-.21-.35-.3-.75-.26-1.15.02-.21.54-4.76 6.67-7.35-.35-5.07 1.12-7.42 1.3-7.69.13-.19.29-.35.48-.48.73-.52 2.05-.9 3.35-.27 1.31.63 2.19 2.02 2.67 4.31 5.21-2.72 8.86-1.37 9.04-1.31.47.18.85.54 1.05 1.01.2.46.21.98.02 1.45-.09.23-2.12 5.14-8.19 7.83 1.8 6.29-.54 11.03-.65 11.24a1.93 1.93 0 0 1-1.69 1.02zM9.73 30.04c.27 0 .54.06.8.18.62.29 1.04.9 1.08 1.59.17 2.72.85 4.55 1.55 5.74.27-1.79.26-4.3-.89-7.16-.19-.48-.18-1.03.04-1.5s.63-.83 1.12-.99c2.95-.96 4.87-2.56 6.05-3.92-1.37.24-3.21.91-5.38 2.51a1.88 1.88 0 0 1-2.99-1.4c-.1-1.55-.29-2.55-.48-3.18-.21 1.07-.35 2.73-.05 5.06.12.9-.42 1.75-1.28 2.03-3.13 1-4.5 2.51-5.1 3.53.81-.06 2.23-.53 4.41-2.13.34-.24.73-.36 1.12-.36z" class="color000 svgShape"/></svg></svg>