<svg xmlns="http://www.w3.org/2000/svg" xmlns:svgjs="http://svgjs.com/svgjs" xmlns:xlink="http://www.w3.org/1999/xlink" width="288" height="288"><svg xmlns="http://www.w3.org/2000/svg" width="288" height="288" enable-background="new 0 0 50 50" viewBox="0 0 50 50"><path fill="#fff" d="M10.90719,27.89865c0.7399-1.9361,2.4526-4.505,5.4236-6.9882c2.0807-1.7362,2.83311-2.2866,3.5476-1.7423
		c1.4217,0.9702,3.8177,2.7915,5.6843,5.1821c0.8485,1.0867,1.5875,2.291,2.0759,3.5865c1.4609-2.3688,3.8764-4.1578,5.9648-4.9075
		c0.00951-0.0466,0.02-0.093,0.0292-0.1397c0.9178-4.6385,0.2275-8.757-6.8616-14.403c-3.1412-2.5088-6.3687-4.2745-7.51709-4.8731
		c-2.48391,1.2979-14.69731,8.0781-14.69731,15.8916c0,1.2002,0.1211,2.3809,0.3599,3.5156
		C6.87819,23.67045,9.40919,25.41435,10.90719,27.89865z" class="color000 svgShape"/><path fill="#fff" d="M35.4909,24.56655c-3.73,0.97-6.27,3.51-7.24,6.8999c-0.01,0.0201-0.01,0.0401-0.02,0.0601
		c-0.11,0.4399-0.5,0.76-0.97,0.76c-0.56,0-1-0.4499-1-1c0-4.6101-4.89-8.6001-7-10.1101c-3.17,2.2201-7,6.0601-7,10.01v0.0801
		c0,0.55-0.45,1-1,1c-0.49,0-0.89-0.3401-0.98-0.8001c0,0,0,0,0-0.01c-0.92-3.2299-3.39-5.8999-7.26-6.8999
		c-0.16,1.51,0.56,5.6299,1.07,8c1.88,9.56,9.09,13.83,15.4,13.83c5.88,0,10.93-3.36,13.52-8.98c0.03-0.0699,0.06-0.15,0.09-0.2201
		C34.5009,33.92645,35.6409,26.41655,35.4909,24.56655z M32.2509,33.78655c-0.09,0.26-2.36,6.46-7.35,9.6499
		c-0.47,0.3001-1.09,0.1602-1.38-0.2999c-0.3-0.4601-0.17-1.08,0.3-1.38c4.42-2.84,6.53-8.59,6.55-8.65
		c0.19-0.5199,0.76-0.79,1.28-0.6C32.1709,32.69645,32.4409,33.26655,32.2509,33.78655z" class="color000 svgShape"/><path fill="#fff" d="M40.4709,4.86655c-1.65,0.2201-6.65,1-11.24,3.0599c0.05,0.04,0.08,0.0801,0.13,0.1201c6.24,5.45,7.11,9.6699,6.39,14.3999
		l0.3-0.0599c3.03-0.66,0.37,11.16-0.51,13.94c1.86-0.6501,3.66-1.7,5.28-3.1c2.23-1.93,4.07-4.46,5.32-7.31
		C49.4809,18.29655,42.1409,7.23655,40.4709,4.86655z M45.4309,22.95645c-3.35,6.76-6.2,8.72-6.31,8.8001
		c-0.46,0.31-1.08,0.1899-1.39-0.27c-0.31-0.46-0.19-1.08,0.27-1.3899c0.05-0.0401,2.59-1.8601,5.64-8.0201
		c0.25-0.5,0.85-0.7,1.34-0.46C45.4809,21.86655,45.6809,22.46645,45.4309,22.95645z" class="color000 svgShape"/></svg></svg>