<svg xmlns="http://www.w3.org/2000/svg" xmlns:svgjs="http://svgjs.com/svgjs" xmlns:xlink="http://www.w3.org/1999/xlink" width="288" height="288"><svg xmlns="http://www.w3.org/2000/svg" width="288" height="288" viewBox="0 0 91 91"><path fill="#fff" d="M61.519 16.607 54.83 12.48V3.823a2.278 2.278 0 0 0-2.276-2.275H40.799a2.278 2.278 0 0 0-2.276 2.275v8.661l-7.119 4.114a5.061 5.061 0 0 0-3.829 4.895v62.918a5.049 5.049 0 0 0 5.045 5.041h27.653a5.048 5.048 0 0 0 5.042-5.041V21.493a5.062 5.062 0 0 0-3.796-4.886zm-29.472 2.152c.118-.024.231-.067.335-.128l7.922-4.578c.259-.149.432-.394.51-.667h8.115a1.125 1.125 0 0 0 0-2.25h-8.151l.021-7.338 11.78.025-.007 8.82a1.124 1.124 0 0 0 .456 1.369l7.465 4.605c.111.068.232.117.36.145a2.78 2.78 0 0 1 1.855 1.373H30.18a2.788 2.788 0 0 1 1.867-1.376zm28.225 68.443H32.619a2.796 2.796 0 0 1-2.795-2.791v-9.525h29.604a1.125 1.125 0 0 0 0-2.25H29.824v-7.748h29.604a1.125 1.125 0 0 0 0-2.25H29.824v-7.752h29.604a1.125 1.125 0 0 0 0-2.25H29.824v-7.75h29.604a1.125 1.125 0 0 0 0-2.25H29.824v-20.25h33.24v25.252H32.429a1.125 1.125 0 0 0 0 2.25h30.636v7.748H32.429a1.125 1.125 0 0 0 0 2.25h30.636v7.75H32.429a1.125 1.125 0 0 0 0 2.25h30.636v14.525a2.796 2.796 0 0 1-2.793 2.791z" class="color000 svgShape"/></svg></svg>