<svg xmlns="http://www.w3.org/2000/svg" xmlns:svgjs="http://svgjs.com/svgjs" xmlns:xlink="http://www.w3.org/1999/xlink" width="288" height="288"><svg xmlns="http://www.w3.org/2000/svg" width="288" height="288" viewBox="0 0 64 64"><path fill="#f5f1ef" d="M33.84 30.5a4.4 4.4 0 0 1 1.16 3 4.5 4.5 0 0 1-9 0 4.4 4.4 0 0 1 1.16-3H2l31-12A6.5 6.5 0 1 0 44.61 14L51 11.5l11 19Z" class="colorff9909 svgShape"/><path fill="#fff" d="M33.84 30.5a4.4 4.4 0 0 1 1.16 3 4.5 4.5 0 0 1-9 0 4.4 4.4 0 0 1 1.16-3H2V53h8.18a6.16 6.16 0 0 1-.18-1.5 6.5 6.5 0 0 1 13 0 6.16 6.16 0 0 1-.18 1.5H62V30.5Zm15 16.88A5.19 5.19 0 1 1 54 42.19a5.19 5.19 0 0 1-5.19 5.19Z" class="colorfbcb00 svgShape"/><circle cx="48.81" cy="42.19" r="5.19" fill="#f5f1ef" class="colorff9909 svgShape"/></svg></svg>